<svg xmlns="http://www.w3.org/2000/svg" viewBox="0 0 900 1200" fill="none">
  <defs>
    <linearGradient id="bg" x1="148" y1="80" x2="740" y2="1100" gradientUnits="userSpaceOnUse">
      <stop stop-color="#CABDFF"/>
      <stop offset="0.52" stop-color="#7A5AE0"/>
      <stop offset="1" stop-color="#4F3B93"/>
    </linearGradient>
    <linearGradient id="plate" x1="205" y1="740" x2="662" y2="1040" gradientUnits="userSpaceOnUse">
      <stop stop-color="#F9D6E8"/>
      <stop offset="1" stop-color="#D9B8FF"/>
    </linearGradient>
    <linearGradient id="printer" x1="318" y1="260" x2="582" y2="710" gradientUnits="userSpaceOnUse">
      <stop stop-color="#FFFFFF"/>
      <stop offset="1" stop-color="#E8E2FF"/>
    </linearGradient>
    <radialGradient id="glow" cx="0" cy="0" r="1" gradientUnits="userSpaceOnUse" gradientTransform="translate(450 360) rotate(90) scale(220 160)">
      <stop stop-color="#FFB6FF" stop-opacity="0.65"/>
      <stop offset="1" stop-color="#FFB6FF" stop-opacity="0"/>
    </radialGradient>
  </defs>
  <rect width="900" height="1200" rx="60" fill="url(#bg)"/>
  <circle cx="210" cy="180" r="88" fill="#FFFFFF" fill-opacity="0.14"/>
  <circle cx="690" cy="260" r="54" fill="#FFFFFF" fill-opacity="0.12"/>
  <circle cx="790" cy="120" r="34" fill="#FFFFFF" fill-opacity="0.16"/>
  <circle cx="120" cy="1010" r="74" fill="#FFFFFF" fill-opacity="0.12"/>
  <ellipse cx="450" cy="920" rx="250" ry="76" fill="#2A184F" fill-opacity="0.28"/>
  <path d="M248 864C264 765 319 707 450 707C581 707 636 765 652 864C558 893 342 893 248 864Z" fill="#5A3AB8" fill-opacity="0.55"/>
  <ellipse cx="450" cy="885" rx="220" ry="62" fill="#2A184F" fill-opacity="0.28"/>
  <rect x="308" y="706" width="284" height="116" rx="40" fill="url(#plate)"/>
  <rect x="338" y="565" width="224" height="190" rx="32" fill="url(#printer)"/>
  <rect x="368" y="522" width="164" height="94" rx="24" fill="#FFFFFF"/>
  <path d="M392 580C392 541 423 509 462 509H468C507 509 538 541 538 580V580C538 612 512 638 480 638H450C418 638 392 612 392 580V580Z" fill="#2C184A"/>
  <path d="M418 577C418 558 434 542 453 542H463C482 542 498 558 498 577V577C498 594 484 608 467 608H449C432 608 418 594 418 577V577Z" fill="#FFB6FF"/>
  <rect x="351" y="610" width="198" height="28" rx="14" fill="#C5BBF9"/>
  <rect x="361" y="646" width="178" height="18" rx="9" fill="#B7AAF0"/>
  <path d="M345 762H555C562 762 568 768 568 775V807H332V775C332 768 338 762 345 762Z" fill="#FFFFFF"/>
  <path d="M333 802H567C571 802 574 805 574 809V825H326V809C326 805 329 802 333 802Z" fill="#D3C8FF"/>
  <rect x="386" y="830" width="128" height="22" rx="11" fill="#F7E9FB"/>
  <path d="M388 464C388 449 401 437 416 437H484C499 437 512 449 512 464V507H388V464Z" fill="#FFFFFF"/>
  <rect x="405" y="451" width="90" height="28" rx="14" fill="#D7CCFF"/>
  <circle cx="610" cy="590" r="15" fill="#FF8ED5"/>
  <circle cx="610" cy="620" r="5" fill="#8C74F5"/>
  <circle cx="610" cy="642" r="5" fill="#8C74F5"/>
  <circle cx="610" cy="664" r="5" fill="#8C74F5"/>
  <circle cx="450" cy="360" r="184" fill="url(#glow)"/>
  <path d="M239 320C294 240 362 195 448 195C549 195 619 251 666 337C561 377 352 382 239 320Z" fill="#FFFFFF" fill-opacity="0.1"/>
</svg>