<?xml version="1.0" encoding="utf-8"?>
<!-- Generator: Adobe Illustrator 25.3.0, SVG Export Plug-In . SVG Version: 6.00 Build 0)  -->
<svg version="1.1" id="Layer_1" xmlns="http://www.w3.org/2000/svg" xmlns:xlink="http://www.w3.org/1999/xlink" x="0px" y="0px"
	 viewBox="0 0 2042 1202" style="enable-background:new 0 0 2042 1202;" xml:space="preserve">
<style type="text/css">
	.st0{clip-path:url(#SVGID_2_);fill:url(#SVGID_3_);}
	.st1{fill-rule:evenodd;clip-rule:evenodd;fill:#37DBD0;}
	.st2{fill-rule:evenodd;clip-rule:evenodd;fill:#17BBB0;}
	.st3{fill-rule:evenodd;clip-rule:evenodd;fill:#009B90;}
	.st4{fill-rule:evenodd;clip-rule:evenodd;fill:#007B70;}
</style>
<g>
	<g>
		<defs>
			<rect id="SVGID_1_" x="-576.6" y="-161.9" width="2759.3" height="1623.1"/>
		</defs>
		<clipPath id="SVGID_2_">
			<use xlink:href="#SVGID_1_"  style="overflow:visible;"/>
		</clipPath>
		
			<linearGradient id="SVGID_3_" gradientUnits="userSpaceOnUse" x1="-617.3656" y1="2472.9229" x2="1775.9568" y2="-694.8105" gradientTransform="matrix(-1 0 0 -1 1638.3334 1199.89)">
			<stop  offset="0" style="stop-color:#B7FDFA"/>
			<stop  offset="1" style="stop-color:#FEFEFE"/>
		</linearGradient>
		<rect x="-576.6" y="-161.9" class="st0" width="2759.3" height="1623.1"/>
	</g>
</g>
<path class="st1" d="M-83.5-253.8C-57.3-85.9,25.3,186.5,189,305.4c125.2,90.9,316.6,24.8,453.7,154.6
	c135.4,128.1,224.5,480.9,384.6,601c144.2,108.2,543.5-36.8,686,59c270.9,182.2,239.1,457.7,491.5,603.6l10.1-1965.6L-83.5-253.8"/>
<path class="st2" d="M411.2-251.3c27,132,91.2,313.2,207,397.2c98.7,71.6,249.6,19.5,357.7,121.8c106.7,101,177,379.2,303.2,473.8
	c113.6,85.2,428.4-29,540.6,46.5c213.6,143.7,188.6,360.8,387.6,475.9l7.7-1505.9L411.2-251.3"/>
<path class="st3" d="M733-249.6c28.6,58.6,65.8,111.7,113.1,145.8C930.7-42.3,1060.2-87,1153,0.8c91.5,86.7,151.8,325.2,260.1,406.5
	c97.5,73.2,367.5-24.9,463.8,39.9c183.2,123.3,161.7,309.6,332.4,408.2l5.6-1097.5L733-249.6"/>
<path class="st4" d="M1316.5-246.6c17.3,35.5,39.9,67.7,68.5,88.4c51.4,37.3,129.9,10.2,186.1,63.4
	c55.5,52.5,92.1,197.1,157.7,246.4c59.1,44.3,222.9-15.1,281.2,24.2c111.1,74.7,98,187.7,201.5,247.5l3.4-665.4L1316.5-246.6"/>
</svg>
