<?xml version="1.0" encoding="utf-8"?>
<!-- Generator: Adobe Illustrator 25.3.0, SVG Export Plug-In . SVG Version: 6.00 Build 0)  -->
<svg version="1.1" id="Layer_1" xmlns="http://www.w3.org/2000/svg" xmlns:xlink="http://www.w3.org/1999/xlink" x="0px" y="0px"
	 viewBox="0 0 2042 1202" style="enable-background:new 0 0 2042 1202;" xml:space="preserve">
<style type="text/css">
	.st0{clip-path:url(#SVGID_2_);fill:url(#SVGID_3_);}
	.st1{fill-rule:evenodd;clip-rule:evenodd;fill:#37DBD0;}
	.st2{fill-rule:evenodd;clip-rule:evenodd;fill:#17BBB0;}
	.st3{fill-rule:evenodd;clip-rule:evenodd;fill:#009B90;}
	.st4{fill-rule:evenodd;clip-rule:evenodd;fill:#007B70;}
</style>
<g>
	<defs>
		<rect id="SVGID_1_" y="2" width="2040" height="1200"/>
	</defs>
	<clipPath id="SVGID_2_">
		<use xlink:href="#SVGID_1_"  style="overflow:visible;"/>
	</clipPath>
	<linearGradient id="SVGID_3_" gradientUnits="userSpaceOnUse" x1="-53.995" y1="-819.509" x2="1715.45" y2="1522.4778">
		<stop  offset="0" style="stop-color:#B7FDFA"/>
		<stop  offset="1" style="stop-color:#FEFEFE"/>
	</linearGradient>
	<rect y="2" class="st0" width="2040" height="1200"/>
</g>
<path class="st1" d="M2619.4,967.8L1179-1770.2L-1162.5-538.3c330.9,211,640.2,2,1026,212.5C66.3-215.1,141,351.8,359.7,456.9
	c242.8,116.7,719.5,4.2,956.5,86.4c240.1,83.2,280,352.9,466.2,446C2026,1111.1,2402.6,1040.7,2619.4,967.8"/>
<path class="st2" d="M2309.4,378.5L1179-1770.2L-614.9-826.4C-354-660.1-110.2-824.8,194-658.8C353.8-571.6,412.7-124.7,585-41.9
	c191.4,92,567.2,3.3,754.1,68.1c189.3,65.6,220.7,278.2,367.5,351.6C1878.7,463.9,2135,428.2,2309.4,378.5"/>
<path class="st3" d="M2107.7-4.9L1179-1770.2l-1307.3,687.8c223.8,142.7,432.9,1.4,693.9,143.7c137.1,74.8,187.6,458.2,335.5,529.2
	c164.2,78.9,486.6,2.9,646.9,58.4c162.4,56.3,189.4,238.7,315.3,301.6C1933.4-14.2,2020-2.7,2107.7-4.9"/>
<path class="st4" d="M1742-699.9L1179-1770.2l-792.6,417c135.7,86.5,262.5,0.8,420.7,87.1c83.1,45.3,113.8,277.8,203.4,320.9
	c99.6,47.8,295,1.7,392.2,35.4c98.4,34.1,114.8,144.7,191.2,182.9C1636.4-705.5,1688.9-698.6,1742-699.9"/>
</svg>
