<?xml version="1.0" encoding="utf-8"?>
<!-- Generator: Adobe Illustrator 25.3.0, SVG Export Plug-In . SVG Version: 6.00 Build 0)  -->
<svg version="1.1" id="Layer_1" xmlns="http://www.w3.org/2000/svg" xmlns:xlink="http://www.w3.org/1999/xlink" x="0px" y="0px"
	 viewBox="0 0 1606.4 1341.6" style="enable-background:new 0 0 1606.4 1341.6;" xml:space="preserve">
<style type="text/css">
	.st0{fill:#36A7B5;}
	.st1{fill:#808080;}
	.st2{fill:#FFFFFF;}
	.st3{fill:#CCCCCC;}
	.st4{opacity:0.6;}
	.st5{fill:#545454;}
	.st6{fill:#E6E6E6;}
	.st7{opacity:0.5;enable-background:new    ;}
	.st8{fill:#D1D1D1;}
	.st9{opacity:0.2;fill:#00264D;enable-background:new    ;}
</style>
<path class="st0" d="M1315.7,1250.7h-1107c-48.7,0-88.1-39.4-88.1-88.1V369.8c0-48.7,39.5-88.1,88.1-88.1h1107
	c48.7,0,88.1,39.4,88.1,88.1v792.8C1403.8,1211.2,1364.3,1250.7,1315.7,1250.7z"/>
<path class="st0" d="M1320.6,1245.8h-1107c-48.7,0-88.1-39.4-88.1-88.1V364.9c0-48.7,39.4-88.1,88.1-88.1h1107
	c48.7,0,88.1,39.4,88.1,88.1v792.8C1408.7,1206.3,1369.2,1245.8,1320.6,1245.8z"/>
<path class="st0" d="M1325.5,1240.9h-1107c-48.7,0-88.1-39.4-88.1-88.1V360c0-48.7,39.4-88.1,88.1-88.1h1107
	c48.7,0,88.1,39.5,88.1,88.1v792.8C1413.6,1201.4,1374.2,1240.9,1325.5,1240.9z"/>
<path class="st0" d="M1330.4,1235.9h-1107c-48.7,0-88.1-39.4-88.1-88.1V355.1c0-48.7,39.5-88.1,88.1-88.1h1107
	c48.7,0,88.1,39.5,88.1,88.1v792.8C1418.5,1196.5,1379.1,1235.9,1330.4,1235.9z"/>
<path class="st1" d="M1335.3,1231h-1107c-48.7,0-88.1-39.4-88.1-88.1V350.2c0-48.7,39.5-88.1,88.1-88.1h1107
	c48.7,0,88.1,39.5,88.1,88.1V1143C1423.4,1191.6,1384,1231,1335.3,1231z"/>
<path class="st2" d="M1335.3,1231h-1107c-48.7,0-88.1-39.4-88.1-88.1V350.2c0-48.7,39.5-88.1,88.1-88.1h1107
	c48.7,0,88.1,39.5,88.1,88.1V1143C1423.4,1191.6,1384,1231,1335.3,1231z"/>
<g>
	<g>
		<rect x="233.7" y="508.2" class="st3" width="1096.1" height="147.1"/>
		<g class="st4">
			<path class="st5" d="M428.7,595.7c-1.8-1.9-2.8-4.7-2.8-8.4v-14.8h2.7v14.7c0,3,0.7,5.2,2,6.7s3.3,2.2,5.8,2.2
				c2.6,0,4.5-0.7,5.8-2.2s2-3.7,2-6.7v-14.7h2.6v14.8c0,3.7-0.9,6.4-2.8,8.4c-1.8,1.9-4.4,2.9-7.7,2.9
				C433.1,598.6,430.5,597.6,428.7,595.7z"/>
			<path class="st5" d="M457,597.9c-1.4-0.5-2.5-1-3.3-1.7l1.2-2.1c0.8,0.6,1.8,1.2,3,1.6c1.2,0.4,2.5,0.6,3.8,0.6
				c1.7,0,3-0.3,3.9-0.8c0.8-0.6,1.3-1.3,1.3-2.3c0-0.7-0.2-1.3-0.7-1.7s-1-0.7-1.7-0.9s-1.6-0.4-2.8-0.6c-1.6-0.3-2.8-0.6-3.8-0.9
				c-0.9-0.3-1.8-0.8-2.4-1.6c-0.7-0.7-1-1.8-1-3.1c0-1.6,0.7-2.9,2-4c1.3-1,3.2-1.6,5.6-1.6c1.2,0,2.5,0.2,3.7,0.5s2.3,0.8,3.1,1.3
				l-1.1,2.1c-1.6-1.1-3.5-1.7-5.7-1.7c-1.7,0-2.9,0.3-3.7,0.9c-0.8,0.6-1.3,1.4-1.3,2.3c0,0.7,0.2,1.3,0.7,1.8
				c0.5,0.4,1.1,0.8,1.8,1c0.7,0.2,1.7,0.4,2.9,0.6c1.5,0.3,2.8,0.6,3.7,0.9c0.9,0.3,1.7,0.8,2.4,1.5c0.7,0.7,1,1.7,1,2.9
				c0,1.7-0.7,3-2.1,4s-3.3,1.5-5.8,1.5C459.9,598.6,458.4,598.3,457,597.9z"/>
			<path class="st5" d="M492.6,589.5h-16c0.1,2,0.9,3.6,2.3,4.9c1.4,1.2,3.1,1.9,5.3,1.9c1.2,0,2.3-0.2,3.3-0.6
				c1-0.4,1.9-1.1,2.6-1.9l1.5,1.7c-0.8,1-1.9,1.8-3.2,2.4c-1.3,0.5-2.7,0.8-4.2,0.8c-2,0-3.7-0.4-5.2-1.3c-1.5-0.8-2.7-2-3.6-3.5
				s-1.3-3.2-1.3-5.1c0-1.9,0.4-3.6,1.2-5.1c0.8-1.5,1.9-2.7,3.4-3.5c1.4-0.8,3-1.3,4.8-1.3s3.4,0.4,4.8,1.3c1.4,0.8,2.5,2,3.3,3.5
				s1.2,3.2,1.2,5.1L492.6,589.5z M478.7,582.9c-1.3,1.2-2,2.7-2.1,4.7h13.6c-0.2-1.9-0.9-3.5-2.1-4.7c-1.3-1.2-2.8-1.8-4.7-1.8
				C481.5,581.1,480,581.7,478.7,582.9z"/>
			<path class="st5" d="M505,579.8c1.2-0.7,2.7-1,4.5-1v2.5h-0.6c-2,0-3.6,0.6-4.7,1.9c-1.1,1.3-1.7,3-1.7,5.3v9.9h-2.6V579h2.5v3.8
				C502.9,581.5,503.8,580.5,505,579.8z"/>
			<path class="st5" d="M531.4,581c1.4,1.4,2.1,3.5,2.1,6.2v11.2H531v-11c0-2-0.5-3.5-1.5-4.6c-1-1-2.4-1.6-4.3-1.6
				c-2.1,0-3.7,0.6-4.9,1.9c-1.2,1.2-1.8,3-1.8,5.1v10.2h-2.6V579h2.5v3.6c0.7-1.2,1.7-2.1,2.9-2.7c1.3-0.6,2.7-1,4.4-1
				C528.1,578.9,530,579.6,531.4,581z"/>
			<path class="st5" d="M554.9,580.8c1.3,1.3,2,3.1,2,5.6v12h-2.5v-3c-0.6,1-1.4,1.8-2.6,2.4c-1.1,0.6-2.5,0.8-4,0.8
				c-2.1,0-3.8-0.5-5.1-1.6c-1.3-1-1.9-2.4-1.9-4.1c0-1.6,0.6-3,1.8-4s3.1-1.5,5.6-1.5h6.1v-1.2c0-1.7-0.5-2.9-1.4-3.8
				c-0.9-0.9-2.3-1.3-4-1.3c-1.2,0-2.4,0.2-3.5,0.6c-1.1,0.4-2.1,1-2.9,1.7l-1.2-2c1-0.8,2.1-1.5,3.5-1.9c1.4-0.5,2.8-0.7,4.3-0.7
				C551.6,578.9,553.6,579.5,554.9,580.8z M552,595.5c1-0.7,1.8-1.7,2.3-2.9v-3.2h-6c-3.3,0-4.9,1.2-4.9,3.5c0,1.1,0.4,2,1.3,2.7
				c0.9,0.7,2,1,3.6,1C549.7,596.5,550.9,596.2,552,595.5z"/>
			<path class="st5" d="M595.4,581c1.4,1.4,2.1,3.5,2.1,6.2v11.2h-2.6v-11c0-2-0.5-3.5-1.4-4.6c-1-1-2.3-1.6-4.1-1.6
				c-2,0-3.6,0.6-4.7,1.9c-1.1,1.2-1.7,3-1.7,5.1v10.2h-2.6v-11c0-2-0.5-3.5-1.4-4.6c-1-1-2.3-1.6-4.1-1.6c-2,0-3.5,0.6-4.7,1.9
				c-1.2,1.2-1.7,3-1.7,5.1v10.2h-2.6V579h2.5v3.5c0.7-1.2,1.6-2.1,2.8-2.7c1.2-0.6,2.6-1,4.2-1c1.6,0,3,0.3,4.2,1s2.1,1.7,2.6,3
				c0.7-1.3,1.7-2.3,3-3s2.8-1.1,4.5-1.1C592.1,578.9,594,579.6,595.4,581z"/>
			<path class="st5" d="M623,589.5h-16c0.1,2,0.9,3.6,2.3,4.9c1.4,1.2,3.1,1.9,5.3,1.9c1.2,0,2.3-0.2,3.3-0.6c1-0.4,1.9-1.1,2.6-1.9
				l1.5,1.7c-0.8,1-1.9,1.8-3.2,2.4c-1.3,0.5-2.7,0.8-4.2,0.8c-2,0-3.7-0.4-5.2-1.3c-1.5-0.8-2.7-2-3.6-3.5
				c-0.9-1.5-1.3-3.2-1.3-5.1c0-1.9,0.4-3.6,1.2-5.1s1.9-2.7,3.4-3.5c1.4-0.8,3-1.3,4.8-1.3s3.4,0.4,4.8,1.3c1.4,0.8,2.5,2,3.3,3.5
				s1.2,3.2,1.2,5.1L623,589.5z M609.1,582.9c-1.3,1.2-2,2.7-2.1,4.7h13.6c-0.2-1.9-0.9-3.5-2.1-4.7c-1.3-1.2-2.8-1.8-4.7-1.8
				C611.9,581.1,610.4,581.7,609.1,582.9z"/>
		</g>
		<rect x="233.7" y="508.2" class="st6" width="147.1" height="147.1"/>
		<path class="st5" d="M312.7,579.1c4.2-2.1,7.1-6.4,7.1-11.5c0-7.1-5.8-12.9-12.9-12.9s-12.9,5.8-12.9,12.9c0,5,2.9,9.4,7.1,11.5
			c-8.6,2.5-14.9,10.3-14.9,19.7v9.7h41.3v-9.7C327.6,589.4,321.3,581.6,312.7,579.1z"/>
	</g>
	<g>
		<rect x="233.7" y="694.8" class="st3" width="1096.1" height="147.1"/>
		<g class="st4">
			<path class="st5" d="M430.7,775.8l4.5,2.6l-0.8,1.5l-4.6-2.7v5.2h-1.7v-5.2l-4.6,2.7l-0.9-1.5l4.6-2.6l-4.6-2.6l0.9-1.6l4.6,2.7
				v-5.2h1.7v5.2l4.6-2.7l0.8,1.6L430.7,775.8z"/>
			<path class="st5" d="M447.3,775.8l4.5,2.6l-0.8,1.5l-4.6-2.7v5.2h-1.7v-5.2l-4.6,2.7l-0.9-1.5l4.6-2.6l-4.6-2.6l0.9-1.6l4.6,2.7
				v-5.2h1.7v5.2l4.6-2.7l0.8,1.6L447.3,775.8z"/>
			<path class="st5" d="M464,775.8l4.5,2.6l-0.8,1.5l-4.6-2.7v5.2h-1.7v-5.2l-4.6,2.7l-0.9-1.5l4.6-2.6l-4.6-2.6l0.9-1.6l4.6,2.7
				v-5.2h1.7v5.2l4.6-2.7l0.8,1.6L464,775.8z"/>
			<path class="st5" d="M480.6,775.8l4.5,2.6l-0.8,1.5l-4.6-2.7v5.2H478v-5.2l-4.6,2.7l-0.9-1.5l4.6-2.6l-4.6-2.6l0.9-1.6l4.6,2.7
				v-5.2h1.7v5.2l4.6-2.7l0.8,1.6L480.6,775.8z"/>
			<path class="st5" d="M497.2,775.8l4.5,2.6l-0.8,1.5l-4.6-2.7v5.2h-1.7v-5.2l-4.6,2.7l-0.9-1.5l4.6-2.6l-4.6-2.6l0.9-1.6l4.6,2.7
				v-5.2h1.7v5.2l4.6-2.7l0.8,1.6L497.2,775.8z"/>
			<path class="st5" d="M513.8,775.8l4.5,2.6l-0.8,1.5l-4.6-2.7v5.2h-1.7v-5.2l-4.6,2.7l-0.9-1.5l4.6-2.6l-4.6-2.6l0.9-1.6l4.6,2.7
				v-5.2h1.7v5.2l4.6-2.7l0.8,1.6L513.8,775.8z"/>
			<path class="st5" d="M530.5,775.8l4.5,2.6l-0.8,1.5l-4.6-2.7v5.2h-1.7v-5.2l-4.6,2.7l-0.9-1.5l4.6-2.6l-4.6-2.6l0.9-1.6l4.6,2.7
				v-5.2h1.7v5.2l4.6-2.7l0.8,1.6L530.5,775.8z"/>
			<path class="st5" d="M547.1,775.8l4.5,2.6l-0.8,1.5l-4.6-2.7v5.2h-1.7v-5.2l-4.6,2.7l-0.9-1.5l4.6-2.6l-4.6-2.6l0.9-1.6l4.6,2.7
				v-5.2h1.7v5.2l4.6-2.7l0.8,1.6L547.1,775.8z"/>
			<path class="st5" d="M563.7,775.8l4.5,2.6l-0.8,1.5l-4.6-2.7v5.2h-1.7v-5.2l-4.6,2.7l-0.9-1.5l4.6-2.6l-4.6-2.6l0.9-1.6l4.6,2.7
				v-5.2h1.7v5.2l4.6-2.7l0.8,1.6L563.7,775.8z"/>
			<path class="st5" d="M580.3,775.8l4.5,2.6l-0.8,1.5l-4.6-2.7v5.2h-1.7v-5.2l-4.6,2.7l-0.9-1.5l4.6-2.6l-4.6-2.6l0.9-1.6l4.6,2.7
				v-5.2h1.7v5.2l4.6-2.7l0.8,1.6L580.3,775.8z"/>
			<path class="st5" d="M597,775.8l4.5,2.6l-0.8,1.5l-4.6-2.7v5.2h-1.7v-5.2l-4.6,2.7l-0.9-1.5l4.6-2.6l-4.6-2.6l0.9-1.6l4.6,2.7
				v-5.2h1.7v5.2l4.6-2.7l0.8,1.6L597,775.8z"/>
			<path class="st5" d="M613.6,775.8l4.5,2.6l-0.8,1.5l-4.6-2.7v5.2H611v-5.2l-4.6,2.7l-0.9-1.5l4.6-2.6l-4.6-2.6l0.9-1.6l4.6,2.7
				v-5.2h1.7v5.2l4.6-2.7l0.8,1.6L613.6,775.8z"/>
		</g>
		<rect x="233.7" y="694.8" class="st6" width="147.1" height="147.1"/>
		<g>
			<path class="st5" d="M323.7,755.1h-3.6v-4.5c0-8.3-6.8-15-15-15c-8.3,0-15,6.7-15,15v4.5h-3.6c-2.8,0-5.1,2.3-5.1,5.1v29.3
				c0,2.9,2.3,5.2,5.1,5.2h37.3c2.9,0,5.2-2.3,5.2-5.2v-29.3C328.9,757.4,326.6,755.1,323.7,755.1z M296.8,750.6
				c0-4.5,3.7-8.2,8.2-8.2s8.2,3.7,8.2,8.2v4.5h-16.5L296.8,750.6L296.8,750.6z M307.8,781.1v7.5c0,0.3-0.3,0.5-0.6,0.5h-3.6
				c-0.3,0-0.5-0.2-0.5-0.5v-7.5c-2.4-1-4.2-3.3-4.2-6.1c0-3.6,2.9-6.6,6.6-6.6c3.6,0,6.6,2.9,6.6,6.6
				C312.1,777.8,310.3,780.2,307.8,781.1z"/>
		</g>
	</g>
</g>
<g>
	<rect x="362.8" y="904.8" class="st7" width="38" height="38"/>
	<polygon class="st8" points="375.8,935.3 366.7,926.2 370.6,922.3 375.8,927.4 392,911.2 395.9,915.1 	"/>
	<g>
		<path class="st0" d="M446.8,934.2l-5.1-7.2c-0.6,0.1-1.2,0.1-1.8,0.1H434v7.1h-2.3v-22.3h8.3c2.8,0,5,0.7,6.6,2
			c1.6,1.4,2.4,3.2,2.4,5.6c0,1.7-0.4,3.2-1.3,4.4s-2.1,2.1-3.7,2.6l5.4,7.7L446.8,934.2L446.8,934.2z M444.9,923.7
			c1.2-1,1.7-2.4,1.7-4.1c0-1.8-0.6-3.2-1.7-4.2c-1.2-1-2.8-1.5-5-1.5H434v11.2h5.9C442.1,925.1,443.7,924.6,444.9,923.7z"/>
		<path class="st0" d="M468.8,926.5h-13.9c0.1,1.7,0.8,3.2,2,4.2c1.2,1.1,2.7,1.6,4.5,1.6c1,0,2-0.2,2.8-0.6
			c0.9-0.4,1.6-0.9,2.2-1.6l1.3,1.5c-0.7,0.9-1.7,1.6-2.8,2c-1.1,0.5-2.3,0.7-3.7,0.7c-1.7,0-3.2-0.4-4.5-1.1s-2.3-1.7-3.1-3
			c-0.7-1.3-1.1-2.8-1.1-4.4c0-1.6,0.4-3.1,1.1-4.4c0.7-1.3,1.7-2.3,2.9-3c1.2-0.7,2.6-1.1,4.2-1.1c1.5,0,2.9,0.4,4.1,1.1
			c1.2,0.7,2.2,1.7,2.9,3c0.7,1.3,1,2.8,1,4.4L468.8,926.5z M456.8,920.8c-1.1,1-1.7,2.4-1.8,4h11.8c-0.1-1.7-0.8-3-1.8-4
			c-1.1-1-2.4-1.5-4.1-1.5C459.2,919.3,457.8,919.8,456.8,920.8z"/>
		<path class="st0" d="M499.4,919.1c1.2,1.2,1.8,3,1.8,5.4v9.7H499v-9.5c0-1.7-0.4-3.1-1.2-4c-0.8-0.9-2-1.4-3.5-1.4
			c-1.7,0-3.1,0.5-4.1,1.6s-1.5,2.6-1.5,4.5v8.8h-2.2v-9.5c0-1.7-0.4-3.1-1.2-4c-0.8-0.9-2-1.4-3.6-1.4c-1.7,0-3.1,0.5-4.1,1.6
			s-1.5,2.6-1.5,4.5v8.8h-2.2v-16.8h2.1v3.1c0.6-1,1.4-1.8,2.5-2.4c1.1-0.6,2.3-0.8,3.6-0.8c1.4,0,2.6,0.3,3.6,0.9
			c1,0.6,1.8,1.5,2.3,2.7c0.6-1.1,1.5-2,2.6-2.6s2.5-0.9,3.9-0.9C496.5,917.3,498.2,917.9,499.4,919.1z"/>
		<path class="st0" d="M522.1,926.5h-13.9c0.1,1.7,0.8,3.2,2,4.2c1.2,1.1,2.7,1.6,4.5,1.6c1,0,2-0.2,2.8-0.6
			c0.9-0.4,1.6-0.9,2.2-1.6l1.3,1.5c-0.7,0.9-1.7,1.6-2.8,2c-1.1,0.5-2.3,0.7-3.7,0.7c-1.7,0-3.2-0.4-4.5-1.1s-2.3-1.7-3.1-3
			c-0.7-1.3-1.1-2.8-1.1-4.4c0-1.6,0.4-3.1,1.1-4.4c0.7-1.3,1.7-2.3,2.9-3c1.2-0.7,2.6-1.1,4.2-1.1c1.5,0,2.9,0.4,4.1,1.1
			c1.2,0.7,2.2,1.7,2.9,3s1,2.8,1,4.4L522.1,926.5z M510.1,920.8c-1.1,1-1.7,2.4-1.8,4H520c-0.1-1.7-0.8-3-1.8-4s-2.4-1.5-4.1-1.5
			C512.5,919.3,511.1,919.8,510.1,920.8z"/>
		<path class="st0" d="M552.7,919.1c1.2,1.2,1.8,3,1.8,5.4v9.7h-2.2v-9.5c0-1.7-0.4-3.1-1.2-4s-2-1.4-3.5-1.4
			c-1.7,0-3.1,0.5-4.1,1.6s-1.5,2.6-1.5,4.5v8.8h-2.2v-9.5c0-1.7-0.4-3.1-1.2-4s-2-1.4-3.6-1.4c-1.7,0-3.1,0.5-4.1,1.6
			s-1.5,2.6-1.5,4.5v8.8H527v-16.8h2.1v3.1c0.6-1,1.4-1.8,2.5-2.4c1.1-0.6,2.3-0.8,3.6-0.8c1.4,0,2.6,0.3,3.6,0.9
			c1,0.6,1.8,1.5,2.3,2.7c0.6-1.1,1.5-2,2.6-2.6s2.5-0.9,3.9-0.9C549.8,917.3,551.5,917.9,552.7,919.1z"/>
		<path class="st0" d="M573.7,918.4c1.3,0.7,2.3,1.7,3,3s1.1,2.8,1.1,4.4s-0.4,3.1-1.1,4.4c-0.7,1.3-1.7,2.3-3,3s-2.7,1.1-4.2,1.1
			c-1.4,0-2.6-0.3-3.7-0.9c-1.1-0.6-2-1.5-2.7-2.6v3.3H561v-23.7h2.2v10.1c0.7-1.1,1.6-1.9,2.7-2.5c1.1-0.6,2.3-0.8,3.7-0.8
			C571,917.3,572.4,917.7,573.7,918.4z M572.4,931.6c1-0.5,1.7-1.3,2.2-2.3s0.8-2.1,0.8-3.4c0-1.3-0.3-2.4-0.8-3.4s-1.3-1.8-2.2-2.3
			s-2-0.8-3.2-0.8s-2.2,0.3-3.2,0.8c-0.9,0.5-1.7,1.3-2.2,2.3s-0.8,2.1-0.8,3.4c0,1.3,0.3,2.4,0.8,3.4s1.3,1.8,2.2,2.3
			s2,0.8,3.2,0.8C570.4,932.4,571.5,932.1,572.4,931.6z"/>
		<path class="st0" d="M597.1,926.5h-13.9c0.1,1.7,0.8,3.2,2,4.2c1.2,1.1,2.7,1.6,4.5,1.6c1,0,2-0.2,2.8-0.6
			c0.9-0.4,1.6-0.9,2.2-1.6l1.3,1.5c-0.7,0.9-1.7,1.6-2.8,2c-1.1,0.5-2.3,0.7-3.7,0.7c-1.7,0-3.2-0.4-4.5-1.1s-2.3-1.7-3.1-3
			c-0.7-1.3-1.1-2.8-1.1-4.4c0-1.6,0.4-3.1,1.1-4.4c0.7-1.3,1.7-2.3,2.9-3s2.6-1.1,4.2-1.1c1.5,0,2.9,0.4,4.1,1.1
			c1.2,0.7,2.2,1.7,2.9,3s1,2.8,1,4.4L597.1,926.5z M585,920.8c-1.1,1-1.7,2.4-1.8,4H595c-0.1-1.7-0.8-3-1.8-4
			c-1.1-1-2.4-1.5-4.1-1.5C587.4,919.3,586.1,919.8,585,920.8z"/>
		<path class="st0" d="M606.5,918.2c1-0.6,2.3-0.9,3.9-0.9v2.2h-0.5c-1.7,0-3.1,0.5-4.1,1.6s-1.5,2.6-1.5,4.6v8.6H602v-16.8h2.1v3.3
			C604.7,919.6,605.5,918.8,606.5,918.2z"/>
		<path class="st0" d="M649.2,919.1c1.2,1.2,1.8,3,1.8,5.4v9.7h-2.2v-9.5c0-1.7-0.4-3.1-1.2-4s-2-1.4-3.5-1.4
			c-1.7,0-3.1,0.5-4.1,1.6s-1.5,2.6-1.5,4.5v8.8h-2.2v-9.5c0-1.7-0.4-3.1-1.2-4s-2-1.4-3.6-1.4c-1.7,0-3.1,0.5-4.1,1.6
			s-1.5,2.6-1.5,4.5v8.8h-2.2v-16.8h2.1v3.1c0.6-1,1.4-1.8,2.5-2.4c1.1-0.6,2.3-0.8,3.6-0.8c1.4,0,2.6,0.3,3.6,0.9
			c1,0.6,1.8,1.5,2.3,2.7c0.6-1.1,1.5-2,2.6-2.6s2.5-0.9,3.9-0.9C646.4,917.3,648,917.9,649.2,919.1z"/>
		<path class="st0" d="M671.9,926.5H658c0.1,1.7,0.8,3.2,2,4.2c1.2,1.1,2.7,1.6,4.5,1.6c1,0,2-0.2,2.8-0.6c0.9-0.4,1.6-0.9,2.2-1.6
			l1.3,1.5c-0.7,0.9-1.7,1.6-2.8,2c-1.1,0.5-2.3,0.7-3.7,0.7c-1.7,0-3.2-0.4-4.5-1.1s-2.3-1.7-3.1-3c-0.7-1.3-1.1-2.8-1.1-4.4
			c0-1.6,0.4-3.1,1.1-4.4c0.7-1.3,1.7-2.3,2.9-3s2.6-1.1,4.2-1.1c1.5,0,2.9,0.4,4.1,1.1c1.2,0.7,2.2,1.7,2.9,3s1,2.8,1,4.4
			L671.9,926.5z M659.9,920.8c-1.1,1-1.7,2.4-1.8,4h11.8c-0.1-1.7-0.8-3-1.8-4s-2.4-1.5-4.1-1.5C662.3,919.3,661,919.8,659.9,920.8z
			"/>
	</g>
</g>
<g>
	<ellipse class="st9" cx="781.8" cy="258.2" rx="203.5" ry="203.5"/>
	<ellipse class="st0" cx="781.8" cy="258.2" rx="156.8" ry="156.8"/>
	<g>
		<g>
			<path class="st2" d="M781.8,254.4c-24.7,0-44.8-20.1-44.8-44.8s20.1-44.8,44.8-44.8s44.8,20.1,44.8,44.8
				C826.6,234.4,806.5,254.4,781.8,254.4z M781.8,172.3c-20.6,0-37.4,16.8-37.4,37.4s16.8,37.4,37.4,37.4s37.4-16.8,37.4-37.4
				S802.4,172.3,781.8,172.3z"/>
		</g>
		<g>
			<path class="st2" d="M862.3,331.3h-161v-3.7c0-44.4,36.1-80.5,80.5-80.5s80.5,36.1,80.5,80.5V331.3L862.3,331.3z M708.7,323.9
				h146.2c-1.9-38.6-34-69.5-73.1-69.5C742.7,254.4,710.6,285.3,708.7,323.9z"/>
		</g>
	</g>
</g>
<g>
	<rect x="335.8" y="984.3" class="st0" width="892.1" height="147.1"/>
	<g>
		<path class="st2" d="M708.8,1045.6h5v23h14.1v4.3h-19.1V1045.6z"/>
		<path class="st2" d="M741.5,1071.4c-2.2-1.2-3.9-2.9-5.2-5s-1.9-4.5-1.9-7.2c0-2.6,0.6-5,1.9-7.2c1.3-2.1,3-3.8,5.2-5
			s4.7-1.8,7.4-1.8s5.2,0.6,7.4,1.8c2.2,1.2,3.9,2.9,5.2,5s1.9,4.5,1.9,7.2s-0.6,5.1-1.9,7.2c-1.3,2.1-3,3.8-5.2,5s-4.7,1.8-7.4,1.8
			C746.2,1073.2,743.7,1072.6,741.5,1071.4z M753.8,1067.5c1.4-0.8,2.6-2,3.4-3.4c0.8-1.5,1.2-3.1,1.2-4.9s-0.4-3.5-1.2-4.9
			c-0.8-1.5-2-2.6-3.4-3.4s-3.1-1.2-4.9-1.2c-1.8,0-3.4,0.4-4.9,1.2c-1.4,0.8-2.6,2-3.4,3.4c-0.8,1.5-1.2,3.1-1.2,4.9
			s0.4,3.5,1.2,4.9c0.8,1.5,2,2.6,3.4,3.4s3.1,1.2,4.9,1.2C750.7,1068.8,752.4,1068.4,753.8,1067.5z"/>
		<path class="st2" d="M792.2,1058.9h4.7v10.9c-1.4,1.1-3,2-4.9,2.6c-1.8,0.6-3.8,0.9-5.7,0.9c-2.8,0-5.2-0.6-7.4-1.8
			c-2.2-1.2-3.9-2.9-5.2-5s-1.9-4.5-1.9-7.2s0.6-5.1,1.9-7.2c1.3-2.1,3-3.8,5.2-5s4.7-1.8,7.5-1.8c2.3,0,4.3,0.4,6.2,1.1
			s3.4,1.9,4.7,3.3l-3.2,3.1c-2.1-2.1-4.5-3.1-7.4-3.1c-1.9,0-3.6,0.4-5.1,1.2c-1.5,0.8-2.6,1.9-3.5,3.4s-1.3,3.1-1.3,5
			c0,1.8,0.4,3.5,1.3,4.9c0.8,1.5,2,2.6,3.5,3.4s3.2,1.2,5,1.2c2.1,0,4-0.5,5.5-1.4L792.2,1058.9L792.2,1058.9z"/>
		<path class="st2" d="M808.6,1045.6h5v27.2h-5V1045.6z"/>
		<path class="st2" d="M849.8,1045.6v27.2h-4.1l-14.9-18.4v18.4h-5v-27.2h4.1l14.9,18.4v-18.4H849.8z"/>
	</g>
</g>
</svg>
