<?xml version="1.0" encoding="utf-8"?>
<!-- Generator: Adobe Illustrator 25.3.0, SVG Export Plug-In . SVG Version: 6.00 Build 0)  -->
<svg version="1.1" id="Calque_1" xmlns="http://www.w3.org/2000/svg" xmlns:xlink="http://www.w3.org/1999/xlink" x="0px" y="0px"
	 viewBox="0 0 500 500" style="enable-background:new 0 0 500 500;" xml:space="preserve">
<style type="text/css">
	.st0{display:none;}
	.st1{display:inline;fill:url(#SVGID_1_);}
	.st2{display:none;opacity:0.22;}
	.st3{display:inline;fill:#2B3E56;}
	.st4{display:inline;}
	.st5{fill:#2B3E56;}
	.st6{fill:none;stroke:#223143;stroke-miterlimit:10;}
	.st7{fill:#75B6D1;}
	.st8{display:none;fill:#569FBE;}
	.st9{fill:url(#SVGID_2_);}
	.st10{fill:url(#SVGID_3_);}
	.st11{opacity:0.6;fill:#A6A6A6;enable-background:new    ;}
	.st12{fill:#9C9C9C;}
	.st13{fill:#FFFFFF;}
	.st14{fill:#3F6F8A;}
	.st15{fill:#3B5267;}
	.st16{fill:#5B98B1;}
	.st17{fill:#A6A6A6;}
	.st18{font-family:'Poppins-SemiBold';}
	.st19{font-size:11.1995px;}
	.st20{fill:none;stroke:#A6A6A6;stroke-width:0.374;stroke-miterlimit:10;}
	.st21{font-family:'Poppins-Regular';}
	.st22{font-size:8.7756px;}
	.st23{letter-spacing:1;}
	.st24{fill:url(#SVGID_4_);}
	.st25{fill:url(#SVGID_5_);}
	.st26{fill:none;stroke:#A6A6A6;stroke-width:1.122;stroke-miterlimit:10;}
	.st27{fill:#747474;}
	.st28{font-size:9.7151px;}
	.st29{font-size:6.6536px;}
	.st30{fill:#97C398;}
	.st31{fill:#569FBE;}
	.st32{fill:#223143;}
	.st33{fill:#1B2736;}
	.st34{display:inline;clip-path:url(#SVGID_7_);}
	.st35{fill:#8DBDDF;}
	.st36{display:inline;clip-path:url(#SVGID_9_);}
	.st37{display:inline;clip-path:url(#SVGID_11_);}
	.st38{display:inline;clip-path:url(#SVGID_13_);}
	.st39{display:inline;clip-path:url(#SVGID_15_);}
	.st40{fill:none;stroke:#8DBDDF;stroke-miterlimit:10;}
	.st41{display:inline;clip-path:url(#SVGID_17_);}
	.st42{display:inline;clip-path:url(#SVGID_19_);}
	.st43{display:inline;clip-path:url(#SVGID_21_);}
</style>
<g id="BACKGROUND" class="st0">
	
		<radialGradient id="SVGID_1_" cx="250" cy="249.89" r="250" gradientTransform="matrix(1 0 0 -1 0 499.89)" gradientUnits="userSpaceOnUse">
		<stop  offset="0" style="stop-color:#324864"/>
		<stop  offset="1" style="stop-color:#2D4059"/>
	</radialGradient>
	<rect y="0" class="st1" width="500" height="500"/>
</g>
<g>
	<g class="st2">
		<path class="st3" d="M203,411.4c-73.8-73.7-193.5-99-141-171.3c15.4-21.3,63.3-34.6,65.9-79.8c1.9-33.1,3.7-61.2,37.2-75
			s64.7,4,95.2,29.3c24.5,20.2,35.1,35.1,84,21.3c36.5-10.3,81.9-10.6,79.2,33c-2.7,43.6-3.4,65.2,12.4,96.9s17,100.3-32,95.5
			C355,356.6,261.3,469.7,203,411.4z"/>
		<g class="st4">
			<path class="st5" d="M283.6,120.5c-3.4,5.2-14.4,4-24.5-2.7s-15.4-16.3-12-21.5s14.4-4,24.5,2.7
				C281.7,105.6,287,115.3,283.6,120.5z"/>
			<path class="st5" d="M309.6,128.6c0,3-2.4,5.4-5.4,5.4s-5.4-2.4-5.4-5.4c0-3,2.4-5.4,5.4-5.4S309.6,125.6,309.6,128.6z"/>
			<circle class="st5" cx="124.2" cy="129.9" r="20.4"/>
			<circle class="st5" cx="126.2" cy="89.1" r="2.5"/>
			<path class="st5" d="M106.3,168.5c0,0.5-0.4,0.8-0.8,0.8c-0.5,0-0.8-0.4-0.8-0.8c0-0.5,0.4-0.8,0.8-0.8S106.3,168.1,106.3,168.5z
				"/>
			<circle class="st5" cx="63.4" cy="221.8" r="11.2"/>
			<ellipse class="st5" cx="428.6" cy="201" rx="13.7" ry="25.8"/>
			<circle class="st5" cx="431.1" cy="159" r="4.6"/>
			<circle class="st5" cx="451" cy="172.7" r="4.6"/>
			<circle class="st5" cx="447.3" cy="283.7" r="13.7"/>
			<path class="st5" d="M296.3,102.4c0,1.8-1.5,3.3-3.3,3.3s-3.3-1.5-3.3-3.3c0-1.8,1.5-3.3,3.3-3.3S296.3,100.6,296.3,102.4z"/>
			<ellipse class="st5" cx="200.3" cy="78.7" rx="9.1" ry="9.1"/>
			<circle class="st5" cx="303.2" cy="422.2" r="19.7"/>
			<path class="st5" d="M195,417.1c0,2.5-2.1,4.6-4.6,4.6s-4.6-2.1-4.6-4.6s2.1-4.6,4.6-4.6S195,414.6,195,417.1z"/>
			<path class="st5" d="M273.8,434.3c0,2.3-1.9,4.2-4.2,4.2c-2.3,0-4.2-1.9-4.2-4.2c0-2.3,1.9-4.2,4.2-4.2
				C271.9,430.1,273.8,432,273.8,434.3z"/>
		</g>
	</g>
	<line class="st6" x1="318" y1="58.3" x2="318" y2="0"/>
	<path class="st7" d="M330.7,71.2c0-7-5.7-12.7-12.7-12.7s-12.7,5.7-12.7,12.7c0,5.5,3.6,10.2,8.5,12v39.2c0,10.5-8.5,19-19,19v8.8
		c15.3,0,27.8-12.5,27.8-27.8V82.9C327.3,81.1,330.7,76.5,330.7,71.2z M318,79.1c-4.4,0-8-3.6-8-8c0-4.4,3.6-8,8-8s8,3.6,8,8
		C326,75.6,322.4,79.1,318,79.1z"/>
	<path class="st8" d="M318,79.1c-4.4,0-8-3.6-8-8c0-4.4,3.6-8,8-8c0.1,0,0.1,0,0.2,0v-4.7c-0.1,0-0.1,0-0.2,0
		c-7,0-12.7,5.7-12.7,12.7c0,5.5,3.6,10.2,8.5,12v39.2c0,10.5-8.5,19-19,19v8.8c9.8,0,18.4-5.1,23.3-12.7V79.1
		C318.1,79.1,318,79.1,318,79.1z"/>
	<g>
		<g>
			
				<linearGradient id="SVGID_2_" gradientUnits="userSpaceOnUse" x1="1705.6416" y1="1337.217" x2="1567.5535" y2="1117.4642" gradientTransform="matrix(0.9088 -0.4172 -0.4172 -0.9088 -714.5267 2069.5481)">
				<stop  offset="0" style="stop-color:#A6A6A6"/>
				<stop  offset="1" style="stop-color:#888988"/>
			</linearGradient>
			<path class="st9" d="M411.3,356l-197.5,90.6c-9.2,4.2-20.2,0.2-24.4-9.1L97.7,237.9c-4.2-9.2-0.2-20.2,9.1-24.4l197.5-90.6
				c9.2-4.2,20.2-0.2,24.4,9.1l91.7,199.7C424.6,340.8,420.5,351.8,411.3,356z"/>
			
				<linearGradient id="SVGID_3_" gradientUnits="userSpaceOnUse" x1="1671.0443" y1="1343.6295" x2="1569.8939" y2="1050.8884" gradientTransform="matrix(0.9088 -0.4172 -0.4172 -0.9088 -714.5267 2069.5481)">
				<stop  offset="0" style="stop-color:#ECECEC"/>
				<stop  offset="1" style="stop-color:#D4D4D4"/>
			</linearGradient>
			<path class="st10" d="M408.8,355.1l-197.5,90.6c-9.2,4.2-20.2,0.2-24.4-9.1L95.2,237c-4.2-9.2-0.2-20.2,9.1-24.4l197.5-90.6
				c9.2-4.2,20.2-0.2,24.4,9.1l91.7,199.7C422.1,339.9,418,350.8,408.8,355.1z"/>
			<path class="st11" d="M266.9,137.9c3.9,8.9,15.9,16,27.9,12.2c-6.4-1.9-20.2-9.1-23-14.5C270.5,136.3,266.9,137.9,266.9,137.9z"
				/>
			<path class="st12" d="M296.3,145.7c0,2.7-0.8,5-1.9,5s-1.9-2.2-1.9-5s0.8-5,1.9-5S296.3,143,296.3,145.7z"/>
			<path class="st11" d="M227.4,214c21.6-9.9,31.1-35.5,21.2-57.2c-1.4-3-3-5.7-4.9-8.2l-76.4,35.1c0.6,3.1,1.6,6.1,3,9.1
				C180.1,214.4,205.7,223.9,227.4,214z"/>
		</g>
		<path class="st13" d="M317.4,207.6l-156.6,71.9c-7.6,3.5-10.9,12.4-7.4,20l0,0c3.5,7.6,12.4,10.9,20,7.4L329.9,235
			c7.6-3.5,10.9-12.4,7.4-20l0,0C333.9,207.4,324.9,204.1,317.4,207.6z"/>
		
			<ellipse transform="matrix(0.7071 -0.7071 0.7071 0.7071 -62.31 197.3969)" class="st14" cx="207.1" cy="173.9" rx="41.4" ry="41.4"/>
		<ellipse class="st15" cx="207.1" cy="173.9" rx="37.4" ry="37.4"/>
		<g>
			
				<ellipse transform="matrix(0.5718 -0.8204 0.8204 0.5718 -54.0006 244.4037)" class="st16" cx="207.1" cy="173.9" rx="35.5" ry="35.5"/>
			<g>
				<path class="st13" d="M215.2,158.2c3.2,6.9,0.1,15-6.8,18.2s-15,0.1-18.2-6.8c-3.2-6.9-0.1-15,6.8-18.2
					C203.8,148.3,212,151.3,215.2,158.2z"/>
				<path class="st13" d="M220.2,202.4c8.1-3.7,13.9-10.5,16.6-18.4c-6.9-7-17.7-9.4-27.2-5c-9.5,4.4-14.8,14.2-13.9,24.1
					C203.4,206.1,212.2,206.1,220.2,202.4z"/>
			</g>
		</g>
		<text transform="matrix(0.9088 -0.4172 0.4172 0.9088 208.6697 239.3242)" class="st17 st18 st19">sign in</text>
		<path class="st16" d="M309.5,311.4l-64.9,29.8c-6.1,2.8-8.8,10-6,16.1l0,0c2.8,6.1,10,8.8,16.1,6l64.9-29.8c6.1-2.8,8.8-10,6-16.1
			l0,0C322.8,311.3,315.6,308.6,309.5,311.4z"/>
		<g>
			<g>
				<path class="st17" d="M210.2,269.9c0.8,1.7,0,3.7-1.7,4.5s-3.7,0-4.5-1.7s0-3.7,1.7-4.5C207.4,267.4,209.4,268.2,210.2,269.9z"
					/>
				<path class="st17" d="M215.4,277.3c-1.9,0.9-6.8,3.1-9.1,4.2c-1.2-2.5-0.1-5.5,2.5-6.7C211.3,273.6,214.2,274.8,215.4,277.3z"/>
			</g>
			<line class="st20" x1="216.7" y1="260" x2="224.8" y2="277.8"/>
			<text transform="matrix(0.9088 -0.4172 0.4172 0.9088 230.4226 267.0034)" class="st17 st21 st22 st23">username</text>
		</g>
		<path class="st13" d="M335.7,247.4l-156.6,71.9c-7.6,3.5-10.9,12.4-7.4,20l0,0c3.5,7.6,12.4,10.9,20,7.4l156.6-71.9
			c7.6-3.5,10.9-12.4,7.4-20l0,0C352.2,247.3,343.2,244,335.7,247.4z"/>
		
			<linearGradient id="SVGID_4_" gradientUnits="userSpaceOnUse" x1="1527.2605" y1="1253.7913" x2="1729.7161" y2="1253.7913" gradientTransform="matrix(0.9088 -0.4172 -0.4172 -0.9088 -714.5267 2069.5481)">
			<stop  offset="0" style="stop-color:#ECECEC"/>
			<stop  offset="1" style="stop-color:#D4D4D4"/>
		</linearGradient>
		<path class="st24" d="M161.4,280.8L318,208.9c7.3-3.4,15.9-0.3,19.6,6.7c-0.1-0.2-0.2-0.5-0.3-0.7c-3.5-7.6-12.4-10.9-20-7.4
			l-156.6,71.9c-7.6,3.5-10.9,12.4-7.4,20c0.1,0.2,0.2,0.4,0.3,0.7C150.7,292.7,154.1,284.2,161.4,280.8z"/>
		
			<linearGradient id="SVGID_5_" gradientUnits="userSpaceOnUse" x1="1527.2592" y1="1209.9324" x2="1729.7151" y2="1209.9324" gradientTransform="matrix(0.9088 -0.4172 -0.4172 -0.9088 -714.5267 2069.5481)">
			<stop  offset="0" style="stop-color:#ECECEC"/>
			<stop  offset="1" style="stop-color:#D4D4D4"/>
		</linearGradient>
		<path class="st25" d="M335.7,247.4l-156.6,71.9c-7.6,3.5-10.9,12.4-7.4,20c0.1,0.2,0.2,0.4,0.3,0.7c-3-7.4,0.4-15.9,7.7-19.3
			l156.6-71.9c7.3-3.4,15.9-0.3,19.6,6.7c-0.1-0.2-0.2-0.5-0.3-0.7C352.2,247.3,343.2,244,335.7,247.4z"/>
		<g>
			<line class="st20" x1="234.2" y1="300.4" x2="242.3" y2="318.1"/>
			<text transform="matrix(0.9088 -0.4172 0.4172 0.9088 247.9309 307.3401)" class="st17 st21 st22 st23">password</text>
			<path class="st17" d="M228.4,311l-8.6,4c-0.3,0.1-0.5,0.5-0.3,0.8l3.3,7.2c0.1,0.3,0.5,0.4,0.8,0.3l8.6-4
				c0.3-0.1,0.5-0.5,0.3-0.8l-3.3-7.2C229.1,311,228.8,310.9,228.4,311z"/>
			<path class="st26" d="M227.5,312.8l-5.7,2.6l-1.3-2.8c-0.7-1.6,0-3.5,1.6-4.2l0,0c1.6-0.7,3.5,0,4.2,1.6L227.5,312.8z"/>
			<path class="st27" d="M226.8,316.1c-0.2-0.5-0.9-0.8-1.4-0.5c-0.5,0.2-0.8,0.9-0.5,1.4c0.1,0.3,0.4,0.5,0.7,0.6
				c0,0,0.1,0.1,0.1,0.1l0.5,1.8c0,0.1,0.1,0.1,0.2,0.1l1.5-0.7c0.1,0,0.1-0.1,0.1-0.2l-1.1-1.5c0,0,0-0.1,0-0.1
				C226.9,316.7,227,316.4,226.8,316.1z"/>
		</g>
		<text transform="matrix(0.9088 -0.4172 0.4172 0.9088 264.519 349.3281)" class="st13 st18 st28 st23">login</text>
		<g>
			<text transform="matrix(0.9088 -0.4172 0.4172 0.9088 217.4939 400.7876)" class="st17 st21 st29">Remember me</text>
			<circle class="st13" cx="209" cy="402.1" r="4.1"/>
			<path class="st30" d="M206,402.5l1.2-0.5l1.8,1.1c0,0,1.3-5.3,2.4-7.1c0.4-0.2,0.8-0.3,0.8-0.3s-2.3,4.7-2.3,8.9
				c-0.2,0.1-0.6,0.3-0.6,0.3L206,402.5z"/>
		</g>
	</g>
	<path class="st7" d="M294.8,150.1c-15.3,0-27.8-12.5-27.8-27.8v-16.2l16.8,16.2h-8c0,10.5,8.5,19,19,19
		C294.8,141.3,297.4,146.5,294.8,150.1z"/>
	<path class="st31" d="M267.1,106.2L267.1,106.2l-0.1,16.1c0,15.3,12.5,27.8,27.8,27.8c0.9-1.3,1.2-2.7,1.1-4
		C273.2,148.6,268.7,121.2,267.1,106.2z"/>
	<g>
		<path class="st32" d="M317.3,64.3L317.3,64.3c-0.4,0-0.7-0.3-0.7-0.7v-5.2c0-0.4,0.3-0.7,0.7-0.7l0,0c0.4,0,0.7,0.3,0.7,0.7v5.2
			C318,64,317.7,64.3,317.3,64.3z"/>
		<path class="st33" d="M316.6,58.3v5.2c0,0.4,0.3,0.7,0.7,0.7v-6.7C316.9,57.6,316.6,57.9,316.6,58.3z"/>
	</g>
	<g>
		<path class="st32" d="M318.8,64.3L318.8,64.3c-0.4,0-0.7-0.3-0.7-0.7v-5.2c0-0.4,0.3-0.7,0.7-0.7l0,0c0.4,0,0.7,0.3,0.7,0.7v5.2
			C319.5,64,319.2,64.3,318.8,64.3z"/>
		<path class="st33" d="M318,58.3v5.2c0,0.4,0.3,0.7,0.7,0.7v-6.7C318.4,57.6,318,57.9,318,58.3z"/>
	</g>
	<g>
		<g class="st0">
			<defs>
				<rect id="SVGID_6_" y="0" width="500" height="500"/>
			</defs>
			<clipPath id="SVGID_7_" class="st4">
				<use xlink:href="#SVGID_6_"  style="overflow:visible;"/>
			</clipPath>
			<g class="st34">
				<path class="st35" d="M-97.3,33.4c0,1.7-1.4,3.1-3.1,3.1s-3.1-1.4-3.1-3.1c0-1.7,1.4-3.1,3.1-3.1S-97.3,31.7-97.3,33.4z"/>
				<path class="st35" d="M-54.8,33.4c0,1.7-1.4,3.1-3.1,3.1s-3.1-1.4-3.1-3.1c0-1.7,1.4-3.1,3.1-3.1S-54.8,31.7-54.8,33.4z"/>
				<path class="st35" d="M-12.3,33.4c0,1.7-1.4,3.1-3.1,3.1s-3.1-1.4-3.1-3.1c0-1.7,1.4-3.1,3.1-3.1S-12.3,31.7-12.3,33.4z"/>
				<path class="st35" d="M30.3,33.4c0,1.7-1.4,3.1-3.1,3.1s-3.1-1.4-3.1-3.1c0-1.7,1.4-3.1,3.1-3.1S30.3,31.7,30.3,33.4z"/>
				<path class="st35" d="M72.8,33.4c0,1.7-1.4,3.1-3.1,3.1s-3.1-1.4-3.1-3.1c0-1.7,1.4-3.1,3.1-3.1S72.8,31.7,72.8,33.4z"/>
				<path class="st35" d="M115.3,33.4c0,1.7-1.4,3.1-3.1,3.1s-3.1-1.4-3.1-3.1c0-1.7,1.4-3.1,3.1-3.1S115.3,31.7,115.3,33.4z"/>
				<path class="st35" d="M157.8,33.4c0,1.7-1.4,3.1-3.1,3.1c-1.7,0-3.1-1.4-3.1-3.1c0-1.7,1.4-3.1,3.1-3.1
					C156.4,30.3,157.8,31.7,157.8,33.4z"/>
			</g>
		</g>
		<g class="st0">
			<defs>
				<rect id="SVGID_8_" y="0" width="500" height="500"/>
			</defs>
			<clipPath id="SVGID_9_" class="st4">
				<use xlink:href="#SVGID_8_"  style="overflow:visible;"/>
			</clipPath>
			<g class="st36">
				<path class="st35" d="M-122.9,53.1c0,1.7-1.4,3.1-3.1,3.1s-3.1-1.4-3.1-3.1c0-1.7,1.4-3.1,3.1-3.1S-122.9,51.4-122.9,53.1z"/>
				<path class="st35" d="M-80.4,53.1c0,1.7-1.4,3.1-3.1,3.1s-3.1-1.4-3.1-3.1c0-1.7,1.4-3.1,3.1-3.1C-81.7,50-80.4,51.4-80.4,53.1z
					"/>
				<path class="st35" d="M-37.8,53.1c0,1.7-1.4,3.1-3.1,3.1s-3.1-1.4-3.1-3.1c0-1.7,1.4-3.1,3.1-3.1S-37.8,51.4-37.8,53.1z"/>
				<path class="st35" d="M4.7,53.1c0,1.7-1.4,3.1-3.1,3.1c-1.7,0-3.1-1.4-3.1-3.1c0-1.7,1.4-3.1,3.1-3.1C3.3,50,4.7,51.4,4.7,53.1z
					"/>
				<path class="st35" d="M47.2,53.1c0,1.7-1.4,3.1-3.1,3.1S41,54.8,41,53.1c0-1.7,1.4-3.1,3.1-3.1S47.2,51.4,47.2,53.1z"/>
				<path class="st35" d="M89.7,53.1c0,1.7-1.4,3.1-3.1,3.1s-3.1-1.4-3.1-3.1c0-1.7,1.4-3.1,3.1-3.1S89.7,51.4,89.7,53.1z"/>
				<path class="st35" d="M132.2,53.1c0,1.7-1.4,3.1-3.1,3.1c-1.7,0-3.1-1.4-3.1-3.1c0-1.7,1.4-3.1,3.1-3.1
					C130.8,50,132.2,51.4,132.2,53.1z"/>
			</g>
		</g>
		<g class="st0">
			<defs>
				<rect id="SVGID_10_" y="0" width="500" height="500"/>
			</defs>
			<clipPath id="SVGID_11_" class="st4">
				<use xlink:href="#SVGID_10_"  style="overflow:visible;"/>
			</clipPath>
			<g class="st37">
				<path class="st35" d="M356,448.8c0,1.7-1.4,3.1-3.1,3.1s-3.1-1.4-3.1-3.1s1.4-3.1,3.1-3.1C354.6,445.7,356,447.1,356,448.8z"/>
				<circle class="st35" cx="395.4" cy="448.8" r="3.1"/>
				<path class="st35" d="M441,448.8c0,1.7-1.4,3.1-3.1,3.1s-3.1-1.4-3.1-3.1s1.4-3.1,3.1-3.1C439.7,445.7,441,447.1,441,448.8z"/>
				<path class="st35" d="M483.5,448.8c0,1.7-1.4,3.1-3.1,3.1s-3.1-1.4-3.1-3.1s1.4-3.1,3.1-3.1S483.5,447.1,483.5,448.8z"/>
				<circle class="st35" cx="523" cy="448.8" r="3.1"/>
				<path class="st35" d="M568.6,448.8c0,1.7-1.4,3.1-3.1,3.1c-1.7,0-3.1-1.4-3.1-3.1s1.4-3.1,3.1-3.1
					C567.2,445.7,568.6,447.1,568.6,448.8z"/>
				<circle class="st35" cx="608" cy="448.8" r="3.1"/>
			</g>
		</g>
		<g class="st0">
			<defs>
				<rect id="SVGID_12_" y="0" width="500" height="500"/>
			</defs>
			<clipPath id="SVGID_13_" class="st4">
				<use xlink:href="#SVGID_12_"  style="overflow:visible;"/>
			</clipPath>
			<g class="st38">
				<path class="st35" d="M371.9,468.4c0,1.7-1.4,3.1-3.1,3.1s-3.1-1.4-3.1-3.1c0-1.7,1.4-3.1,3.1-3.1S371.9,466.7,371.9,468.4z"/>
				<path class="st35" d="M414.4,468.4c0,1.7-1.4,3.1-3.1,3.1s-3.1-1.4-3.1-3.1c0-1.7,1.4-3.1,3.1-3.1S414.4,466.7,414.4,468.4z"/>
				<path class="st35" d="M456.9,468.4c0,1.7-1.4,3.1-3.1,3.1c-1.7,0-3.1-1.4-3.1-3.1c0-1.7,1.4-3.1,3.1-3.1
					C455.5,465.3,456.9,466.7,456.9,468.4z"/>
				<path class="st35" d="M499.4,468.4c0,1.7-1.4,3.1-3.1,3.1s-3.1-1.4-3.1-3.1c0-1.7,1.4-3.1,3.1-3.1S499.4,466.7,499.4,468.4z"/>
				<path class="st35" d="M542,468.4c0,1.7-1.4,3.1-3.1,3.1c-1.7,0-3.1-1.4-3.1-3.1c0-1.7,1.4-3.1,3.1-3.1
					C540.6,465.3,542,466.7,542,468.4z"/>
				<path class="st35" d="M584.5,468.4c0,1.7-1.4,3.1-3.1,3.1c-1.7,0-3.1-1.4-3.1-3.1c0-1.7,1.4-3.1,3.1-3.1
					C583.1,465.3,584.5,466.7,584.5,468.4z"/>
				<path class="st35" d="M627,468.4c0,1.7-1.4,3.1-3.1,3.1c-1.7,0-3.1-1.4-3.1-3.1c0-1.7,1.4-3.1,3.1-3.1
					C625.6,465.3,627,466.7,627,468.4z"/>
			</g>
		</g>
		<g class="st0">
			<defs>
				<rect id="SVGID_14_" y="0" width="500" height="500"/>
			</defs>
			<clipPath id="SVGID_15_" class="st4">
				<use xlink:href="#SVGID_14_"  style="overflow:visible;"/>
			</clipPath>
			<g class="st39">
				<line class="st40" x1="104.4" y1="447.2" x2="-14.2" y2="590.9"/>
				<line class="st40" x1="101.6" y1="474.3" x2="-16.9" y2="618"/>
			</g>
		</g>
		<g class="st0">
			<defs>
				<rect id="SVGID_16_" y="0" width="500" height="500"/>
			</defs>
			<clipPath id="SVGID_17_" class="st4">
				<use xlink:href="#SVGID_16_"  style="overflow:visible;"/>
			</clipPath>
			<g class="st41">
				<line class="st40" x1="474.7" y1="-142.1" x2="358.3" y2="3.3"/>
				<line class="st40" x1="490.7" y1="-129.3" x2="374.3" y2="16.2"/>
				<line class="st40" x1="506.7" y1="-116.5" x2="390.3" y2="29"/>
				<line class="st40" x1="522.8" y1="-103.7" x2="406.4" y2="41.8"/>
				<line class="st40" x1="538.8" y1="-90.8" x2="422.4" y2="54.7"/>
			</g>
		</g>
		<g class="st0">
			<defs>
				<rect id="SVGID_18_" y="0" width="500" height="500"/>
			</defs>
			<clipPath id="SVGID_19_" class="st4">
				<use xlink:href="#SVGID_18_"  style="overflow:visible;"/>
			</clipPath>
			<g class="st42">
				<g>
					<path class="st35" d="M-107.3,452.8c0.8,0.6,0.9,1.8,0.3,2.6c-0.6,0.8-1.8,0.9-2.6,0.3c-0.8-0.6-0.9-1.8-0.3-2.6
						C-109.2,452.3-108,452.2-107.3,452.8z"/>
					<path class="st35" d="M-92.9,435.2c0.8,0.6,0.9,1.8,0.3,2.6c-0.6,0.8-1.8,0.9-2.6,0.3c-0.8-0.6-0.9-1.8-0.3-2.6
						C-94.9,434.6-93.7,434.5-92.9,435.2z"/>
					<path class="st35" d="M-78.6,417.5c0.8,0.6,0.9,1.8,0.3,2.6s-1.8,0.9-2.6,0.3c-0.8-0.6-0.9-1.8-0.3-2.6
						C-80.6,417-79.4,416.9-78.6,417.5z"/>
					<path class="st35" d="M-64.3,399.9c0.8,0.6,0.9,1.8,0.3,2.6c-0.6,0.8-1.8,0.9-2.6,0.3c-0.8-0.6-0.9-1.8-0.3-2.6
						C-66.2,399.3-65.1,399.2-64.3,399.9z"/>
					<path class="st35" d="M-50,382.2c0.8,0.6,0.9,1.8,0.3,2.6c-0.6,0.8-1.8,0.9-2.6,0.3c-0.8-0.6-0.9-1.8-0.3-2.6
						S-50.8,381.6-50,382.2z"/>
					<path class="st35" d="M-35.7,364.5c0.8,0.6,0.9,1.8,0.3,2.6c-0.6,0.8-1.8,0.9-2.6,0.3c-0.8-0.6-0.9-1.8-0.3-2.6
						C-37.6,364-36.5,363.9-35.7,364.5z"/>
					<path class="st35" d="M-21.4,346.9c0.8,0.6,0.9,1.8,0.3,2.6s-1.8,0.9-2.6,0.3c-0.8-0.6-0.9-1.8-0.3-2.6
						C-23.3,346.4-22.2,346.3-21.4,346.9z"/>
					<path class="st35" d="M-7.1,329.2c0.8,0.6,0.9,1.8,0.3,2.6c-0.6,0.8-1.8,0.9-2.6,0.3c-0.8-0.6-0.9-1.8-0.3-2.6
						C-9,328.7-7.9,328.6-7.1,329.2z"/>
					<path class="st35" d="M7.2,311.6c0.8,0.6,0.9,1.8,0.3,2.6c-0.6,0.8-1.8,0.9-2.6,0.3c-0.8-0.6-0.9-1.8-0.3-2.6
						C5.3,311.1,6.5,311,7.2,311.6z"/>
				</g>
				<g>
					<path class="st35" d="M-92,465.2c0.8,0.6,0.9,1.8,0.3,2.6c-0.6,0.8-1.8,0.9-2.6,0.3c-0.8-0.6-0.9-1.8-0.3-2.6
						C-93.9,464.7-92.7,464.6-92,465.2z"/>
					<path class="st35" d="M-77.7,447.6c0.8,0.6,0.9,1.8,0.3,2.6s-1.8,0.9-2.6,0.3c-0.8-0.6-0.9-1.8-0.3-2.6
						C-79.6,447-78.4,446.9-77.7,447.6z"/>
					<path class="st35" d="M-63.3,429.9c0.8,0.6,0.9,1.8,0.3,2.6c-0.6,0.8-1.8,0.9-2.6,0.3c-0.8-0.6-0.9-1.8-0.3-2.6
						C-65.3,429.4-64.1,429.3-63.3,429.9z"/>
					<path class="st35" d="M-49,412.3c0.8,0.6,0.9,1.8,0.3,2.6c-0.6,0.8-1.8,0.9-2.6,0.3c-0.8-0.6-0.9-1.8-0.3-2.6
						C-51,411.7-49.8,411.6-49,412.3z"/>
					<path class="st35" d="M-34.7,394.6c0.8,0.6,0.9,1.8,0.3,2.6s-1.8,0.9-2.6,0.3c-0.8-0.6-0.9-1.8-0.3-2.6
						C-36.6,394.1-35.5,394-34.7,394.6z"/>
					<path class="st35" d="M-20.4,377c0.8,0.6,0.9,1.8,0.3,2.6c-0.6,0.8-1.8,0.9-2.6,0.3c-0.8-0.6-0.9-1.8-0.3-2.6
						C-22.3,376.4-21.2,376.3-20.4,377z"/>
					<path class="st35" d="M-6.1,359.3c0.8,0.6,0.9,1.8,0.3,2.6c-0.6,0.8-1.8,0.9-2.6,0.3c-0.8-0.6-0.9-1.8-0.3-2.6
						C-8,358.8-6.9,358.7-6.1,359.3z"/>
					<path class="st35" d="M8.2,341.6c0.8,0.6,0.9,1.8,0.3,2.6c-0.6,0.8-1.8,0.9-2.6,0.3c-0.8-0.6-0.9-1.8-0.3-2.6
						C6.3,341.1,7.4,341,8.2,341.6z"/>
					<path class="st35" d="M22.5,324c0.8,0.6,0.9,1.8,0.3,2.6s-1.8,0.9-2.6,0.3c-0.8-0.6-0.9-1.8-0.3-2.6
						C20.6,323.5,21.8,323.4,22.5,324z"/>
				</g>
				<g>
					<path class="st35" d="M-76.7,477.6c0.8,0.6,0.9,1.8,0.3,2.6c-0.6,0.8-1.8,0.9-2.6,0.3c-0.8-0.6-0.9-1.8-0.3-2.6
						C-78.6,477.1-77.4,477-76.7,477.6z"/>
					<path class="st35" d="M-62.4,460c0.8,0.6,0.9,1.8,0.3,2.6c-0.6,0.8-1.8,0.9-2.6,0.3c-0.8-0.6-0.9-1.8-0.3-2.6
						C-64.3,459.5-63.1,459.3-62.4,460z"/>
					<path class="st35" d="M-48,442.3c0.8,0.6,0.9,1.8,0.3,2.6c-0.6,0.8-1.8,0.9-2.6,0.3c-0.8-0.6-0.9-1.8-0.3-2.6
						C-50,441.8-48.8,441.7-48,442.3z"/>
					<path class="st35" d="M-33.7,424.7c0.8,0.6,0.9,1.8,0.3,2.6c-0.6,0.8-1.8,0.9-2.6,0.3c-0.8-0.6-0.9-1.8-0.3-2.6
						C-35.7,424.1-34.5,424-33.7,424.7z"/>
					<path class="st35" d="M-19.4,407c0.8,0.6,0.9,1.8,0.3,2.6c-0.6,0.8-1.8,0.9-2.6,0.3c-0.8-0.6-0.9-1.8-0.3-2.6
						S-20.2,406.4-19.4,407z"/>
					<path class="st35" d="M-5.1,389.4c0.8,0.6,0.9,1.8,0.3,2.6c-0.6,0.8-1.8,0.9-2.6,0.3c-0.8-0.6-0.9-1.8-0.3-2.6
						C-7,388.8-5.9,388.7-5.1,389.4z"/>
					<path class="st35" d="M9.2,371.7c0.8,0.6,0.9,1.8,0.3,2.6c-0.6,0.8-1.8,0.9-2.6,0.3c-0.8-0.6-0.9-1.8-0.3-2.6
						S8.4,371.1,9.2,371.7z"/>
					<path class="st35" d="M23.5,354c0.8,0.6,0.9,1.8,0.3,2.6c-0.6,0.8-1.8,0.9-2.6,0.3c-0.8-0.6-0.9-1.8-0.3-2.6
						C21.6,353.5,22.7,353.4,23.5,354z"/>
					<path class="st35" d="M37.8,336.4c0.8,0.6,0.9,1.8,0.3,2.6c-0.6,0.8-1.8,0.9-2.6,0.3c-0.8-0.6-0.9-1.8-0.3-2.6
						C35.9,335.9,37.1,335.8,37.8,336.4z"/>
				</g>
				<g>
					<path class="st35" d="M-61.4,490c0.8,0.6,0.9,1.8,0.3,2.6c-0.6,0.8-1.8,0.9-2.6,0.3c-0.8-0.6-0.9-1.8-0.3-2.6
						S-62.1,489.4-61.4,490z"/>
					<path class="st35" d="M-47.1,472.4c0.8,0.6,0.9,1.8,0.3,2.6s-1.8,0.9-2.6,0.3c-0.8-0.6-0.9-1.8-0.3-2.6
						C-49,471.9-47.8,471.7-47.1,472.4z"/>
					<path class="st35" d="M-32.7,454.7c0.8,0.6,0.9,1.8,0.3,2.6c-0.6,0.8-1.8,0.9-2.6,0.3c-0.8-0.6-0.9-1.8-0.3-2.6
						C-34.7,454.2-33.5,454.1-32.7,454.7z"/>
					<path class="st35" d="M-18.4,437.1c0.8,0.6,0.9,1.8,0.3,2.6c-0.6,0.8-1.8,0.9-2.6,0.3c-0.8-0.6-0.9-1.8-0.3-2.6
						C-20.4,436.6-19.2,436.4-18.4,437.1z"/>
					<path class="st35" d="M-4.1,419.4c0.8,0.6,0.9,1.8,0.3,2.6c-0.6,0.8-1.8,0.9-2.6,0.3c-0.8-0.6-0.9-1.8-0.3-2.6
						C-6,418.9-4.9,418.8-4.1,419.4z"/>
					<path class="st35" d="M10.2,401.8c0.8,0.6,0.9,1.8,0.3,2.6s-1.8,0.9-2.6,0.3C7.1,404,7,402.8,7.6,402
						C8.3,401.2,9.4,401.1,10.2,401.8z"/>
					<path class="st35" d="M24.5,384.1c0.8,0.6,0.9,1.8,0.3,2.6c-0.6,0.8-1.8,0.9-2.6,0.3c-0.8-0.6-0.9-1.8-0.3-2.6
						S23.7,383.5,24.5,384.1z"/>
					<path class="st35" d="M38.8,366.5c0.8,0.6,0.9,1.8,0.3,2.6c-0.6,0.8-1.8,0.9-2.6,0.3c-0.8-0.6-0.9-1.8-0.3-2.6
						C36.9,365.9,38,365.8,38.8,366.5z"/>
					<path class="st35" d="M53.1,348.8c0.8,0.6,0.9,1.8,0.3,2.6c-0.6,0.8-1.8,0.9-2.6,0.3c-0.8-0.6-0.9-1.8-0.3-2.6
						C51.2,348.3,52.4,348.2,53.1,348.8z"/>
				</g>
				<g>
					<path class="st35" d="M-46.1,502.4c0.8,0.6,0.9,1.8,0.3,2.6c-0.6,0.8-1.8,0.9-2.6,0.3c-0.8-0.6-0.9-1.8-0.3-2.6
						C-48,501.9-46.8,501.8-46.1,502.4z"/>
					<path class="st35" d="M-31.8,484.8c0.8,0.6,0.9,1.8,0.3,2.6c-0.6,0.8-1.8,0.9-2.6,0.3c-0.8-0.6-0.9-1.8-0.3-2.6
						C-33.7,484.3-32.5,484.1-31.8,484.8z"/>
					<path class="st35" d="M-17.4,467.1c0.8,0.6,0.9,1.8,0.3,2.6c-0.6,0.8-1.8,0.9-2.6,0.3c-0.8-0.6-0.9-1.8-0.3-2.6
						S-18.2,466.5-17.4,467.1z"/>
					<path class="st35" d="M-3.1,449.5c0.8,0.6,0.9,1.8,0.3,2.6s-1.8,0.9-2.6,0.3c-0.8-0.6-0.9-1.8-0.3-2.6
						C-5.1,449-3.9,448.8-3.1,449.5z"/>
					<path class="st35" d="M11.2,431.8c0.8,0.6,0.9,1.8,0.3,2.6c-0.6,0.8-1.8,0.9-2.6,0.3c-0.8-0.6-0.9-1.8-0.3-2.6
						C9.3,431.3,10.4,431.2,11.2,431.8z"/>
					<path class="st35" d="M25.5,414.2c0.8,0.6,0.9,1.8,0.3,2.6c-0.6,0.8-1.8,0.9-2.6,0.3c-0.8-0.6-0.9-1.8-0.3-2.6
						C23.6,413.6,24.7,413.5,25.5,414.2z"/>
					<path class="st35" d="M39.8,396.5c0.8,0.6,0.9,1.8,0.3,2.6c-0.6,0.8-1.8,0.9-2.6,0.3c-0.8-0.6-0.9-1.8-0.3-2.6
						C37.9,396,39,395.9,39.8,396.5z"/>
					<path class="st35" d="M54.1,378.9c0.8,0.6,0.9,1.8,0.3,2.6s-1.8,0.9-2.6,0.3c-0.8-0.6-0.9-1.8-0.3-2.6
						C52.2,378.3,53.3,378.2,54.1,378.9z"/>
					<path class="st35" d="M68.4,361.2c0.8,0.6,0.9,1.8,0.3,2.6c-0.6,0.8-1.8,0.9-2.6,0.3c-0.8-0.6-0.9-1.8-0.3-2.6
						C66.5,360.7,67.7,360.6,68.4,361.2z"/>
				</g>
				<g>
					<path class="st35" d="M-30.8,514.8c0.8,0.6,0.9,1.8,0.3,2.6c-0.6,0.8-1.8,0.9-2.6,0.3c-0.8-0.6-0.9-1.8-0.3-2.6
						C-32.7,514.3-31.5,514.2-30.8,514.8z"/>
					<path class="st35" d="M-16.5,497.2c0.8,0.6,0.9,1.8,0.3,2.6s-1.8,0.9-2.6,0.3c-0.8-0.6-0.9-1.8-0.3-2.6
						C-18.4,496.7-17.2,496.5-16.5,497.2z"/>
					<path class="st35" d="M-2.1,479.5c0.8,0.6,0.9,1.8,0.3,2.6s-1.8,0.9-2.6,0.3c-0.8-0.6-0.9-1.8-0.3-2.6
						C-4.1,479-2.9,478.9-2.1,479.5z"/>
					<path class="st35" d="M12.2,461.9c0.8,0.6,0.9,1.8,0.3,2.6c-0.6,0.8-1.8,0.9-2.6,0.3c-0.8-0.6-0.9-1.8-0.3-2.6
						C10.2,461.4,11.4,461.2,12.2,461.9z"/>
					<path class="st35" d="M26.5,444.2c0.8,0.6,0.9,1.8,0.3,2.6c-0.6,0.8-1.8,0.9-2.6,0.3c-0.8-0.6-0.9-1.8-0.3-2.6
						S25.7,443.6,26.5,444.2z"/>
					<path class="st35" d="M40.8,426.6c0.8,0.6,0.9,1.8,0.3,2.6s-1.8,0.9-2.6,0.3s-0.9-1.8-0.3-2.6C38.9,426.1,40,425.9,40.8,426.6z
						"/>
					<path class="st35" d="M55.1,408.9c0.8,0.6,0.9,1.8,0.3,2.6c-0.6,0.8-1.8,0.9-2.6,0.3c-0.8-0.6-0.9-1.8-0.3-2.6
						C53.2,408.4,54.3,408.3,55.1,408.9z"/>
					<path class="st35" d="M69.4,391.3c0.8,0.6,0.9,1.8,0.3,2.6c-0.6,0.8-1.8,0.9-2.6,0.3c-0.8-0.6-0.9-1.8-0.3-2.6
						C67.5,390.7,68.6,390.6,69.4,391.3z"/>
					<path class="st35" d="M83.7,373.6c0.8,0.6,0.9,1.8,0.3,2.6c-0.6,0.8-1.8,0.9-2.6,0.3c-0.8-0.6-0.9-1.8-0.3-2.6
						C81.8,373.1,83,373,83.7,373.6z"/>
				</g>
				<g>
					<path class="st35" d="M-15.5,527.2c0.8,0.6,0.9,1.8,0.3,2.6s-1.8,0.9-2.6,0.3c-0.8-0.6-0.9-1.8-0.3-2.6
						C-17.4,526.7-16.2,526.6-15.5,527.2z"/>
					<path class="st35" d="M-1.2,509.6c0.8,0.6,0.9,1.8,0.3,2.6c-0.6,0.8-1.8,0.9-2.6,0.3c-0.8-0.6-0.9-1.8-0.3-2.6
						C-3.1,509.1-1.9,508.9-1.2,509.6z"/>
					<path class="st35" d="M13.2,491.9c0.8,0.6,0.9,1.8,0.3,2.6c-0.6,0.8-1.8,0.9-2.6,0.3c-0.8-0.6-0.9-1.8-0.3-2.6
						C11.2,491.4,12.4,491.3,13.2,491.9z"/>
					<path class="st35" d="M27.5,474.3c0.8,0.6,0.9,1.8,0.3,2.6s-1.8,0.9-2.6,0.3c-0.8-0.6-0.9-1.8-0.3-2.6S26.7,473.6,27.5,474.3z"
						/>
					<path class="st35" d="M41.8,456.6c0.8,0.6,0.9,1.8,0.3,2.6c-0.6,0.8-1.8,0.9-2.6,0.3s-0.9-1.8-0.3-2.6
						C39.9,456.1,41,456,41.8,456.6z"/>
					<path class="st35" d="M56.1,439c0.8,0.6,0.9,1.8,0.3,2.6c-0.6,0.8-1.8,0.9-2.6,0.3c-0.8-0.6-0.9-1.8-0.3-2.6
						C54.2,438.5,55.3,438.3,56.1,439z"/>
					<path class="st35" d="M70.4,421.3c0.8,0.6,0.9,1.8,0.3,2.6c-0.6,0.8-1.8,0.9-2.6,0.3c-0.8-0.6-0.9-1.8-0.3-2.6
						C68.5,420.8,69.6,420.7,70.4,421.3z"/>
					<path class="st35" d="M84.7,403.7c0.8,0.6,0.9,1.8,0.3,2.6s-1.8,0.9-2.6,0.3c-0.8-0.6-0.9-1.8-0.3-2.6
						C82.8,403.2,83.9,403,84.7,403.7z"/>
					<path class="st35" d="M99,386c0.8,0.6,0.9,1.8,0.3,2.6s-1.8,0.9-2.6,0.3c-0.8-0.6-0.9-1.8-0.3-2.6S98.3,385.4,99,386z"/>
				</g>
			</g>
		</g>
		<g class="st0">
			<defs>
				<rect id="SVGID_20_" y="0" width="500" height="500"/>
			</defs>
			<clipPath id="SVGID_21_" class="st4">
				<use xlink:href="#SVGID_20_"  style="overflow:visible;"/>
			</clipPath>
			<g class="st43">
				<g>
					<path class="st35" d="M460.8,56.5c-0.5,0.9-1.6,1.2-2.5,0.7s-1.2-1.6-0.7-2.5c0.5-0.9,1.6-1.2,2.5-0.7S461.2,55.6,460.8,56.5z"
						/>
					<path class="st35" d="M480.8,67.3c-0.5,0.9-1.6,1.2-2.5,0.7s-1.2-1.6-0.7-2.5c0.5-0.9,1.6-1.2,2.5-0.7
						C480.9,65.3,481.2,66.4,480.8,67.3z"/>
					<path class="st35" d="M500.8,78.1c-0.5,0.9-1.6,1.2-2.5,0.7s-1.2-1.6-0.7-2.5c0.5-0.9,1.6-1.2,2.5-0.7
						C500.9,76.1,501.2,77.2,500.8,78.1z"/>
					<path class="st35" d="M520.8,88.9c-0.5,0.9-1.6,1.2-2.5,0.7c-0.9-0.5-1.2-1.6-0.7-2.5c0.5-0.9,1.6-1.2,2.5-0.7
						S521.2,88,520.8,88.9z"/>
					<path class="st35" d="M540.8,99.6c-0.5,0.9-1.6,1.2-2.5,0.7c-0.9-0.5-1.2-1.6-0.7-2.5c0.5-0.9,1.6-1.2,2.5-0.7
						C540.9,97.7,541.2,98.8,540.8,99.6z"/>
					<path class="st35" d="M560.8,110.4c-0.5,0.9-1.6,1.2-2.5,0.7c-0.9-0.5-1.2-1.6-0.7-2.5c0.5-0.9,1.6-1.2,2.5-0.7
						S561.3,109.5,560.8,110.4z"/>
					<path class="st35" d="M580.8,121.2c-0.5,0.9-1.6,1.2-2.5,0.7c-0.9-0.5-1.2-1.6-0.7-2.5c0.5-0.9,1.6-1.2,2.5-0.7
						C580.9,119.2,581.3,120.3,580.8,121.2z"/>
					<path class="st35" d="M600.8,132c-0.5,0.9-1.6,1.2-2.5,0.7c-0.9-0.5-1.2-1.6-0.7-2.5s1.6-1.2,2.5-0.7
						C600.9,130,601.3,131.1,600.8,132z"/>
					<path class="st35" d="M620.8,142.8c-0.5,0.9-1.6,1.2-2.5,0.7c-0.9-0.5-1.2-1.6-0.7-2.5c0.5-0.9,1.6-1.2,2.5-0.7
						C620.9,140.8,621.3,141.9,620.8,142.8z"/>
				</g>
				<g>
					<path class="st35" d="M451.4,73.8c-0.5,0.9-1.6,1.2-2.5,0.7s-1.2-1.6-0.7-2.5c0.5-0.9,1.6-1.2,2.5-0.7
						C451.6,71.8,451.9,72.9,451.4,73.8z"/>
					<path class="st35" d="M471.4,84.6c-0.5,0.9-1.6,1.2-2.5,0.7s-1.2-1.6-0.7-2.5c0.5-0.9,1.6-1.2,2.5-0.7
						C471.6,82.6,471.9,83.7,471.4,84.6z"/>
					<path class="st35" d="M491.4,95.4c-0.5,0.9-1.6,1.2-2.5,0.7s-1.2-1.6-0.7-2.5c0.5-0.9,1.6-1.2,2.5-0.7
						C491.6,93.4,491.9,94.5,491.4,95.4z"/>
					<path class="st35" d="M511.4,106.2c-0.5,0.9-1.6,1.2-2.5,0.7s-1.2-1.6-0.7-2.5c0.5-0.9,1.6-1.2,2.5-0.7
						S511.9,105.3,511.4,106.2z"/>
					<path class="st35" d="M531.4,117c-0.5,0.9-1.6,1.2-2.5,0.7c-0.9-0.5-1.2-1.6-0.7-2.5c0.5-0.9,1.6-1.2,2.5-0.7
						C531.6,115,531.9,116.1,531.4,117z"/>
					<path class="st35" d="M551.4,127.8c-0.5,0.9-1.6,1.2-2.5,0.7c-0.9-0.5-1.2-1.6-0.7-2.5c0.5-0.9,1.6-1.2,2.5-0.7
						C551.6,125.8,551.9,126.9,551.4,127.8z"/>
					<path class="st35" d="M571.4,138.6c-0.5,0.9-1.6,1.2-2.5,0.7c-0.9-0.5-1.2-1.6-0.7-2.5s1.6-1.2,2.5-0.7
						C571.6,136.6,571.9,137.7,571.4,138.6z"/>
					<path class="st35" d="M591.4,149.3c-0.5,0.9-1.6,1.2-2.5,0.7c-0.9-0.5-1.2-1.6-0.7-2.5s1.6-1.2,2.5-0.7
						C591.6,147.4,591.9,148.5,591.4,149.3z"/>
					<path class="st35" d="M611.4,160.1c-0.5,0.9-1.6,1.2-2.5,0.7c-0.9-0.5-1.2-1.6-0.7-2.5s1.6-1.2,2.5-0.7
						S611.9,159.2,611.4,160.1z"/>
				</g>
				<g>
					<path class="st35" d="M442.1,91.2c-0.5,0.9-1.6,1.2-2.5,0.7c-0.9-0.5-1.2-1.6-0.7-2.5c0.5-0.9,1.6-1.2,2.5-0.7
						C442.2,89.2,442.5,90.3,442.1,91.2z"/>
					<path class="st35" d="M462.1,101.9c-0.5,0.9-1.6,1.2-2.5,0.7s-1.2-1.6-0.7-2.5c0.5-0.9,1.6-1.2,2.5-0.7
						C462.2,100,462.5,101.1,462.1,101.9z"/>
					<path class="st35" d="M482.1,112.7c-0.5,0.9-1.6,1.2-2.5,0.7s-1.2-1.6-0.7-2.5c0.5-0.9,1.6-1.2,2.5-0.7
						C482.2,110.7,482.5,111.9,482.1,112.7z"/>
					<path class="st35" d="M502.1,123.5c-0.5,0.9-1.6,1.2-2.5,0.7s-1.2-1.6-0.7-2.5c0.5-0.9,1.6-1.2,2.5-0.7
						C502.2,121.5,502.5,122.6,502.1,123.5z"/>
					<path class="st35" d="M522.1,134.3c-0.5,0.9-1.6,1.2-2.5,0.7c-0.9-0.5-1.2-1.6-0.7-2.5s1.6-1.2,2.5-0.7
						C522.2,132.3,522.5,133.4,522.1,134.3z"/>
					<path class="st35" d="M542.1,145.1c-0.5,0.9-1.6,1.2-2.5,0.7c-0.9-0.5-1.2-1.6-0.7-2.5s1.6-1.2,2.5-0.7
						C542.2,143.1,542.6,144.2,542.1,145.1z"/>
					<path class="st35" d="M562.1,155.9c-0.5,0.9-1.6,1.2-2.5,0.7c-0.9-0.5-1.2-1.6-0.7-2.5s1.6-1.2,2.5-0.7
						C562.2,153.9,562.6,155,562.1,155.9z"/>
					<path class="st35" d="M582.1,166.7c-0.5,0.9-1.6,1.2-2.5,0.7c-0.9-0.5-1.2-1.6-0.7-2.5s1.6-1.2,2.5-0.7
						C582.2,164.7,582.6,165.8,582.1,166.7z"/>
					<path class="st35" d="M602.1,177.5c-0.5,0.9-1.6,1.2-2.5,0.7c-0.9-0.5-1.2-1.6-0.7-2.5s1.6-1.2,2.5-0.7
						C602.2,175.5,602.6,176.6,602.1,177.5z"/>
				</g>
				<g>
					<path class="st35" d="M432.7,108.5c-0.5,0.9-1.6,1.2-2.5,0.7c-0.9-0.5-1.2-1.6-0.7-2.5c0.5-0.9,1.6-1.2,2.5-0.7
						C432.9,106.5,433.2,107.6,432.7,108.5z"/>
					<path class="st35" d="M452.7,119.3c-0.5,0.9-1.6,1.2-2.5,0.7s-1.2-1.6-0.7-2.5c0.5-0.9,1.6-1.2,2.5-0.7
						C452.9,117.3,453.2,118.4,452.7,119.3z"/>
					<path class="st35" d="M472.7,130.1c-0.5,0.9-1.6,1.2-2.5,0.7s-1.2-1.6-0.7-2.5s1.6-1.2,2.5-0.7
						C472.9,128.1,473.2,129.2,472.7,130.1z"/>
					<path class="st35" d="M492.7,140.9c-0.5,0.9-1.6,1.2-2.5,0.7s-1.2-1.6-0.7-2.5s1.6-1.2,2.5-0.7
						C492.9,138.9,493.2,140,492.7,140.9z"/>
					<path class="st35" d="M512.7,151.6c-0.5,0.9-1.6,1.2-2.5,0.7s-1.2-1.6-0.7-2.5s1.6-1.2,2.5-0.7
						C512.9,149.7,513.2,150.8,512.7,151.6z"/>
					<path class="st35" d="M532.7,162.4c-0.5,0.9-1.6,1.2-2.5,0.7c-0.9-0.5-1.2-1.6-0.7-2.5s1.6-1.2,2.5-0.7
						C532.9,160.4,533.2,161.6,532.7,162.4z"/>
					<path class="st35" d="M552.7,173.2c-0.5,0.9-1.6,1.2-2.5,0.7c-0.9-0.5-1.2-1.6-0.7-2.5s1.6-1.2,2.5-0.7
						C552.9,171.2,553.2,172.3,552.7,173.2z"/>
					<path class="st35" d="M572.7,184c-0.5,0.9-1.6,1.2-2.5,0.7c-0.9-0.5-1.2-1.6-0.7-2.5s1.6-1.2,2.5-0.7
						C572.9,182,573.2,183.1,572.7,184z"/>
					<path class="st35" d="M592.7,194.8c-0.5,0.9-1.6,1.2-2.5,0.7c-0.9-0.5-1.2-1.6-0.7-2.5s1.6-1.2,2.5-0.7
						S593.2,193.9,592.7,194.8z"/>
				</g>
				<g>
					<path class="st35" d="M423.4,125.8c-0.5,0.9-1.6,1.2-2.5,0.7s-1.2-1.6-0.7-2.5c0.5-0.9,1.6-1.2,2.5-0.7
						S423.8,124.9,423.4,125.8z"/>
					<path class="st35" d="M443.4,136.6c-0.5,0.9-1.6,1.2-2.5,0.7s-1.2-1.6-0.7-2.5s1.6-1.2,2.5-0.7
						C443.5,134.6,443.8,135.7,443.4,136.6z"/>
					<path class="st35" d="M463.4,147.4c-0.5,0.9-1.6,1.2-2.5,0.7s-1.2-1.6-0.7-2.5s1.6-1.2,2.5-0.7S463.8,146.5,463.4,147.4z"/>
					<path class="st35" d="M483.4,158.2c-0.5,0.9-1.6,1.2-2.5,0.7s-1.2-1.6-0.7-2.5s1.6-1.2,2.5-0.7
						C483.5,156.2,483.8,157.3,483.4,158.2z"/>
					<path class="st35" d="M503.4,169c-0.5,0.9-1.6,1.2-2.5,0.7s-1.2-1.6-0.7-2.5s1.6-1.2,2.5-0.7S503.9,168.1,503.4,169z"/>
					<path class="st35" d="M523.4,179.8c-0.5,0.9-1.6,1.2-2.5,0.7c-0.9-0.5-1.2-1.6-0.7-2.5s1.6-1.2,2.5-0.7
						C523.5,177.8,523.9,178.9,523.4,179.8z"/>
					<path class="st35" d="M543.4,190.6c-0.5,0.9-1.6,1.2-2.5,0.7c-0.9-0.5-1.2-1.6-0.7-2.5s1.6-1.2,2.5-0.7
						C543.5,188.6,543.9,189.7,543.4,190.6z"/>
					<path class="st35" d="M563.4,201.3c-0.5,0.9-1.6,1.2-2.5,0.7c-0.9-0.5-1.2-1.6-0.7-2.5s1.6-1.2,2.5-0.7
						C563.5,199.4,563.9,200.5,563.4,201.3z"/>
					<path class="st35" d="M583.4,212.1c-0.5,0.9-1.6,1.2-2.5,0.7c-0.9-0.5-1.2-1.6-0.7-2.5s1.6-1.2,2.5-0.7
						C583.5,210.1,583.9,211.3,583.4,212.1z"/>
				</g>
				<g>
					<path class="st35" d="M414,143.2c-0.5,0.9-1.6,1.2-2.5,0.7s-1.2-1.6-0.7-2.5s1.6-1.2,2.5-0.7S414.5,142.3,414,143.2z"/>
					<path class="st35" d="M434,154c-0.5,0.9-1.6,1.2-2.5,0.7s-1.2-1.6-0.7-2.5s1.6-1.2,2.5-0.7C434.2,152,434.5,153.1,434,154z"/>
					<path class="st35" d="M454,164.7c-0.5,0.9-1.6,1.2-2.5,0.7s-1.2-1.6-0.7-2.5s1.6-1.2,2.5-0.7
						C454.2,162.8,454.5,163.9,454,164.7z"/>
					<path class="st35" d="M474,175.5c-0.5,0.9-1.6,1.2-2.5,0.7s-1.2-1.6-0.7-2.5s1.6-1.2,2.5-0.7
						C474.2,173.5,474.5,174.6,474,175.5z"/>
					<path class="st35" d="M494,186.3c-0.5,0.9-1.6,1.2-2.5,0.7s-1.2-1.6-0.7-2.5s1.6-1.2,2.5-0.7
						C494.2,184.3,494.5,185.4,494,186.3z"/>
					<path class="st35" d="M514,197.1c-0.5,0.9-1.6,1.2-2.5,0.7c-0.9-0.5-1.2-1.6-0.7-2.5s1.6-1.2,2.5-0.7
						C514.2,195.1,514.5,196.2,514,197.1z"/>
					<path class="st35" d="M534,207.9c-0.5,0.9-1.6,1.2-2.5,0.7c-0.9-0.5-1.2-1.6-0.7-2.5s1.6-1.2,2.5-0.7
						C534.2,205.9,534.5,207,534,207.9z"/>
					<path class="st35" d="M554,218.7c-0.5,0.9-1.6,1.2-2.5,0.7c-0.9-0.5-1.2-1.6-0.7-2.5s1.6-1.2,2.5-0.7
						C554.2,216.7,554.5,217.8,554,218.7z"/>
					<path class="st35" d="M574,229.5c-0.5,0.9-1.6,1.2-2.5,0.7c-0.9-0.5-1.2-1.6-0.7-2.5s1.6-1.2,2.5-0.7
						C574.2,227.5,574.5,228.6,574,229.5z"/>
				</g>
				<g>
					<path class="st35" d="M404.7,160.5c-0.5,0.9-1.6,1.2-2.5,0.7s-1.2-1.6-0.7-2.5c0.5-0.9,1.6-1.2,2.5-0.7
						C404.8,158.5,405.1,159.6,404.7,160.5z"/>
					<path class="st35" d="M424.7,171.3c-0.5,0.9-1.6,1.2-2.5,0.7s-1.2-1.6-0.7-2.5s1.6-1.2,2.5-0.7
						C424.8,169.3,425.1,170.4,424.7,171.3z"/>
					<path class="st35" d="M444.7,182.1c-0.5,0.9-1.6,1.2-2.5,0.7s-1.2-1.6-0.7-2.5s1.6-1.2,2.5-0.7
						C444.8,180.1,445.1,181.2,444.7,182.1z"/>
					<path class="st35" d="M464.7,192.9c-0.5,0.9-1.6,1.2-2.5,0.7s-1.2-1.6-0.7-2.5s1.6-1.2,2.5-0.7
						C464.8,190.9,465.1,192,464.7,192.9z"/>
					<path class="st35" d="M484.7,203.7c-0.5,0.9-1.6,1.2-2.5,0.7s-1.2-1.6-0.7-2.5s1.6-1.2,2.5-0.7
						C484.8,201.7,485.1,202.8,484.7,203.7z"/>
					<path class="st35" d="M504.7,214.4c-0.5,0.9-1.6,1.2-2.5,0.7s-1.2-1.6-0.7-2.5c0.5-0.9,1.6-1.2,2.5-0.7
						C504.8,212.5,505.2,213.6,504.7,214.4z"/>
					<path class="st35" d="M524.7,225.2c-0.5,0.9-1.6,1.2-2.5,0.7c-0.9-0.5-1.2-1.6-0.7-2.5s1.6-1.2,2.5-0.7
						C524.8,223.2,525.2,224.3,524.7,225.2z"/>
					<path class="st35" d="M544.7,236c-0.5,0.9-1.6,1.2-2.5,0.7c-0.9-0.5-1.2-1.6-0.7-2.5s1.6-1.2,2.5-0.7
						C544.8,234,545.2,235.1,544.7,236z"/>
					<path class="st35" d="M564.7,246.8c-0.5,0.9-1.6,1.2-2.5,0.7c-0.9-0.5-1.2-1.6-0.7-2.5s1.6-1.2,2.5-0.7
						C564.8,244.8,565.2,245.9,564.7,246.8z"/>
				</g>
			</g>
		</g>
	</g>
</g>
</svg>
